<svg width="49" height="49" viewBox="0 0 49 49" fill="none" xmlns="http://www.w3.org/2000/svg">
<rect width="49" height="49" fill="white"/>
<path d="M36.8012 13.9894C34.6004 12.9597 32.2471 12.2113 29.7868 11.7852C29.4846 12.3314 29.1316 13.0662 28.8882 13.6507C26.2729 13.2574 23.6816 13.2574 21.1143 13.6507C20.871 13.0662 20.51 12.3314 20.2051 11.7852C17.7421 12.2113 15.3862 12.9624 13.1853 13.9948C8.74608 20.7031 7.54268 27.2446 8.14438 33.6933C11.0887 35.8921 13.9421 37.2277 16.7473 38.1018C17.4399 37.1485 18.0577 36.1352 18.5898 35.0672C17.5763 34.6821 16.6056 34.2069 15.6884 33.6551C15.9317 33.4748 16.1697 33.2864 16.3997 33.0924C21.9941 35.7091 28.0726 35.7091 33.6002 33.0924C33.8329 33.2864 34.0708 33.4748 34.3115 33.6551C33.3916 34.2096 32.4182 34.6848 31.4047 35.07C31.9368 36.1352 32.5519 37.1513 33.2472 38.1045C36.0551 37.2304 38.9112 35.8948 41.8555 33.6933C42.5615 26.2176 40.6494 19.7361 36.8012 13.9894ZM19.352 29.7274C17.6726 29.7274 16.2954 28.1596 16.2954 26.2504C16.2954 24.3412 17.6432 22.7707 19.352 22.7707C21.0608 22.7707 22.438 24.3385 22.4086 26.2504C22.4113 28.1596 21.0608 29.7274 19.352 29.7274ZM30.6479 29.7274C28.9685 29.7274 27.5912 28.1596 27.5912 26.2504C27.5912 24.3412 28.939 22.7707 30.6479 22.7707C32.3567 22.7707 33.7339 24.3385 33.7045 26.2504C33.7045 28.1596 32.3567 29.7274 30.6479 29.7274Z" fill="black"/>
</svg>
