<svg width="1217" height="584" viewBox="0 0 1217 584" fill="none" xmlns="http://www.w3.org/2000/svg">
<g filter="url(#filter0_f_7_251)">
<path fill-rule="evenodd" clip-rule="evenodd" d="M608.573 171.811L608.573 212.133L607.696 212.133L607.696 171.811L608.573 171.811Z" fill="#24FF00"/>
<circle opacity="0.05" cx="608.573" cy="226.158" r="68.8102" stroke="#24FF00" stroke-width="1.75313"/>
<path opacity="0.05" fill-rule="evenodd" clip-rule="evenodd" d="M747.851 379.119L469.295 379.119C427.766 341.283 401.704 286.765 401.704 226.159C401.704 165.787 427.566 111.455 468.815 73.6369L748.331 73.6369C789.58 111.455 815.442 165.787 815.442 226.159C815.442 286.765 789.38 341.283 747.851 379.119ZM727.347 226.159C727.347 291.756 674.17 344.933 608.573 344.933C542.976 344.933 489.799 291.756 489.799 226.159C489.799 160.562 542.976 107.385 608.573 107.385C674.17 107.385 727.347 160.562 727.347 226.159Z" fill="#24FF00"/>
<circle opacity="0.05" cx="608.573" cy="226.159" r="142.003" stroke="#24FF00" stroke-width="1.75313"/>
<path opacity="0.05" fill-rule="evenodd" clip-rule="evenodd" d="M433.95 73.637C398.314 114.403 376.722 167.759 376.722 226.159C376.722 354.207 480.525 458.01 608.573 458.01C736.621 458.01 840.424 354.207 840.424 226.159C840.424 167.759 818.832 114.403 783.197 73.637L780.861 73.637C816.832 114.239 838.671 167.649 838.671 226.159C838.671 353.238 735.652 456.257 608.573 456.257C481.494 456.257 378.475 353.238 378.475 226.159C378.475 167.649 400.314 114.239 436.285 73.637L433.95 73.637Z" fill="#24FF00"/>
<path d="M608.573 410.675L601.999 429.959L608.573 425.46L615.147 429.959L608.573 410.675Z" fill="#24FF00"/>
<path opacity="0.1" fill-rule="evenodd" clip-rule="evenodd" d="M623.913 227.035L1213.84 227.035L1213.84 225.282L623.913 225.282L623.913 227.035ZM592.356 227.035L592.356 225.282L2.86815 225.282L2.86815 227.035L592.356 227.035Z" fill="#24FF00"/>
<path fill-rule="evenodd" clip-rule="evenodd" d="M667.358 424.78L695.788 424.78L695.788 425.548L667.358 425.548L667.358 424.78Z" fill="#24FF00"/>
<path d="M879.004 424.998H881.095V426.151H879.004L878.406 425.574L879.004 424.998Z" fill="#24FF00"/>
<rect x="951.785" y="423.077" width="1.15254" height="1.15254" fill="#24FF00"/>
<rect x="951.785" y="426.919" width="1.15254" height="1.15254" fill="#24FF00"/>
<rect x="941.028" y="425.19" width="0.768362" height="0.768362" fill="#24FF00"/>
<rect x="881.864" y="424.998" width="0.576271" height="1.15254" fill="#24FF00"/>
<rect x="884.745" y="424.998" width="0.576271" height="1.15254" fill="#24FF00"/>
<rect opacity="0.45" x="897.807" y="293.032" width="0.960452" height="0.960452" fill="#24FF00"/>
<rect opacity="0.45" x="919.513" y="293.032" width="0.960452" height="0.960452" fill="#24FF00"/>
<rect opacity="0.45" x="897.807" y="299.755" width="0.960452" height="0.960452" fill="#24FF00"/>
<rect opacity="0.45" x="919.513" y="299.755" width="0.960452" height="0.960452" fill="#24FF00"/>
<rect opacity="0.45" x="754.124" y="293.032" width="0.960452" height="0.960452" fill="#24FF00"/>
<rect opacity="0.45" x="775.83" y="293.032" width="0.960452" height="0.960452" fill="#24FF00"/>
<rect opacity="0.45" x="754.124" y="299.755" width="0.960452" height="0.960452" fill="#24FF00"/>
<rect opacity="0.45" x="775.83" y="299.755" width="0.960452" height="0.960452" fill="#24FF00"/>
<rect opacity="0.45" x="686.892" y="520.083" width="0.960452" height="0.960452" fill="#24FF00"/>
<rect opacity="0.45" x="717.05" y="520.083" width="0.960452" height="0.960452" fill="#24FF00"/>
<rect opacity="0.45" x="686.892" y="529.303" width="0.960452" height="0.960452" fill="#24FF00"/>
<rect opacity="0.45" x="717.05" y="529.303" width="0.960452" height="0.960452" fill="#24FF00"/>
<rect opacity="0.3" x="757.965" y="417.314" width="4.0339" height="4.0339" stroke="#24FF00" stroke-width="0.384181"/>
<rect opacity="0.3" x="720.123" y="417.314" width="4.0339" height="4.0339" stroke="#24FF00" stroke-width="0.384181"/>
<rect opacity="0.3" x="816.553" y="502.602" width="4.0339" height="4.0339" stroke="#24FF00" stroke-width="0.384181"/>
<rect opacity="0.25" x="910.677" y="451.698" width="0.384181" height="28.8136" fill="#24FF00"/>
<rect opacity="0.25" x="896.463" y="466.297" width="0.38418" height="28.8136" transform="rotate(-90 896.463 466.297)" fill="#24FF00"/>
<rect opacity="0.25" x="910.869" y="362.761" width="0.384181" height="28.8136" fill="#24FF00"/>
<rect opacity="0.25" x="896.655" y="377.36" width="0.384134" height="28.8136" transform="rotate(-90 896.655 377.36)" fill="#24FF00"/>
<path opacity="0.5" d="M758.157 434.026L758.157 429.928L760.078 428.648L761.999 429.928L761.999 434.026L758.157 434.026Z" fill="#24FF00"/>
<path opacity="0.15" d="M746.44 355.461H769.683V495.687H746.44" stroke="#24FF00" stroke-width="0.768362"/>
<path fill-rule="evenodd" clip-rule="evenodd" d="M548.911 424.78L520.482 424.78L520.482 425.548L548.911 425.548L548.911 424.78Z" fill="#24FF00"/>
<path d="M337.266 424.998H335.174V426.151H337.266L337.863 425.574L337.266 424.998Z" fill="#24FF00"/>
<rect width="1.15254" height="1.15254" transform="matrix(-1 0 0 1 264.485 423.077)" fill="#24FF00"/>
<rect width="1.15254" height="1.15254" transform="matrix(-1 0 0 1 264.485 426.919)" fill="#24FF00"/>
<rect width="0.768362" height="0.768362" transform="matrix(-1 0 0 1 275.242 425.19)" fill="#24FF00"/>
<rect width="0.576271" height="1.15254" transform="matrix(-1 0 0 1 334.406 424.998)" fill="#24FF00"/>
<rect width="0.576271" height="1.15254" transform="matrix(-1 0 0 1 331.524 424.998)" fill="#24FF00"/>
<rect opacity="0.45" width="0.960452" height="0.960452" transform="matrix(-1 0 0 1 318.462 293.032)" fill="#24FF00"/>
<rect opacity="0.45" width="0.960452" height="0.960452" transform="matrix(-1 0 0 1 296.756 293.032)" fill="#24FF00"/>
<rect opacity="0.45" width="0.960452" height="0.960452" transform="matrix(-1 0 0 1 318.462 299.755)" fill="#24FF00"/>
<rect opacity="0.45" width="0.960452" height="0.960452" transform="matrix(-1 0 0 1 296.756 299.755)" fill="#24FF00"/>
<rect opacity="0.45" width="0.960452" height="0.960452" transform="matrix(-1 0 0 1 462.146 293.032)" fill="#24FF00"/>
<rect opacity="0.45" width="0.960452" height="0.960452" transform="matrix(-1 0 0 1 440.44 293.032)" fill="#24FF00"/>
<rect opacity="0.45" width="0.960452" height="0.960452" transform="matrix(-1 0 0 1 462.146 299.755)" fill="#24FF00"/>
<rect opacity="0.45" width="0.960452" height="0.960452" transform="matrix(-1 0 0 1 440.44 299.755)" fill="#24FF00"/>
<rect opacity="0.45" width="0.960452" height="0.960452" transform="matrix(-1 0 0 1 529.378 520.083)" fill="#24FF00"/>
<rect opacity="0.45" width="0.960452" height="0.960452" transform="matrix(-1 0 0 1 499.219 520.083)" fill="#24FF00"/>
<rect opacity="0.45" width="0.960452" height="0.960452" transform="matrix(-1 0 0 1 529.378 529.303)" fill="#24FF00"/>
<rect opacity="0.45" width="0.960452" height="0.960452" transform="matrix(-1 0 0 1 499.219 529.303)" fill="#24FF00"/>
<rect opacity="0.3" x="-0.19209" y="0.19209" width="4.0339" height="4.0339" transform="matrix(-1 0 0 1 458.112 417.122)" stroke="#24FF00" stroke-width="0.384181"/>
<rect opacity="0.3" x="-0.19209" y="0.19209" width="4.0339" height="4.0339" transform="matrix(-1 0 0 1 495.954 417.122)" stroke="#24FF00" stroke-width="0.384181"/>
<rect opacity="0.3" x="-0.19209" y="0.19209" width="4.0339" height="4.0339" transform="matrix(-1 0 0 1 399.524 502.41)" stroke="#24FF00" stroke-width="0.384181"/>
<rect opacity="0.25" width="0.384181" height="28.8136" transform="matrix(-1 0 0 1 305.592 451.698)" fill="#24FF00"/>
<rect opacity="0.25" width="0.38418" height="28.8136" transform="matrix(4.37114e-08 -1 -1 -4.37114e-08 319.807 466.297)" fill="#24FF00"/>
<rect opacity="0.25" width="0.384181" height="28.8136" transform="matrix(-1 0 0 1 305.4 362.761)" fill="#24FF00"/>
<rect opacity="0.25" width="0.384134" height="28.8136" transform="matrix(4.37114e-08 -1 -1 -4.37114e-08 319.615 377.36)" fill="#24FF00"/>
<path opacity="0.5" d="M458.112 434.026L458.112 429.928L456.191 428.648L454.27 429.928L454.27 434.026L458.112 434.026Z" fill="#24FF00"/>
<path opacity="0.15" d="M469.83 355.461H446.587V495.687H469.83" stroke="#24FF00" stroke-width="0.768362"/>
<rect x="1006.97" y="191.096" width="24.982" height="10.957" fill="#24FF00"/>
<path d="M1023.41 307.857H1024.55C1024.72 307.857 1024.87 307.837 1025.01 307.796C1025.15 307.754 1025.27 307.691 1025.37 307.609C1025.47 307.529 1025.55 307.429 1025.61 307.309C1025.67 307.189 1025.69 307.051 1025.69 306.893C1025.69 306.804 1025.68 306.719 1025.65 306.638C1025.63 306.556 1025.59 306.482 1025.55 306.415C1025.5 306.353 1025.44 306.298 1025.37 306.249C1025.3 306.199 1025.22 306.161 1025.12 306.136V306.131C1025.18 306.104 1025.24 306.074 1025.29 306.04C1025.34 306.005 1025.39 305.965 1025.43 305.92C1025.49 305.857 1025.53 305.786 1025.56 305.706C1025.6 305.624 1025.61 305.536 1025.61 305.442C1025.61 305.287 1025.58 305.154 1025.53 305.042C1025.47 304.928 1025.39 304.835 1025.28 304.762C1025.18 304.689 1025.06 304.635 1024.92 304.6C1024.78 304.564 1024.63 304.546 1024.47 304.546H1023.41V307.857ZM1023.96 306.361H1024.58C1024.67 306.362 1024.75 306.376 1024.82 306.402C1024.89 306.426 1024.95 306.461 1025 306.506C1025.05 306.552 1025.08 306.607 1025.11 306.672C1025.13 306.736 1025.15 306.81 1025.15 306.893C1025.15 306.972 1025.13 307.044 1025.1 307.109C1025.07 307.173 1025.03 307.227 1024.97 307.271C1024.92 307.313 1024.86 307.346 1024.79 307.371C1024.72 307.395 1024.64 307.407 1024.56 307.407H1023.96V306.361ZM1023.96 305.945V304.998H1024.47C1024.57 305 1024.65 305.011 1024.73 305.033C1024.81 305.052 1024.87 305.085 1024.92 305.13C1024.97 305.167 1025 305.214 1025.03 305.271C1025.05 305.328 1025.07 305.394 1025.07 305.472C1025.07 305.544 1025.05 305.609 1025.02 305.665C1025 305.721 1024.96 305.769 1024.91 305.808C1024.86 305.852 1024.8 305.885 1024.72 305.908C1024.65 305.931 1024.57 305.943 1024.48 305.945H1023.96ZM1027.82 307.095L1028.04 307.857H1028.6L1027.54 304.546H1027.06L1025.98 307.857H1026.55L1026.78 307.095H1027.82ZM1026.91 306.627L1027.3 305.317L1027.68 306.627H1026.91ZM1031.24 306.838H1030.69C1030.68 306.939 1030.66 307.027 1030.63 307.105C1030.6 307.182 1030.56 307.246 1030.51 307.298C1030.46 307.351 1030.4 307.391 1030.33 307.418C1030.25 307.446 1030.17 307.459 1030.08 307.459C1030 307.459 1029.93 307.449 1029.86 307.428C1029.8 307.405 1029.75 307.372 1029.7 307.33C1029.66 307.29 1029.62 307.243 1029.58 307.189C1029.55 307.134 1029.53 307.073 1029.51 307.007C1029.48 306.926 1029.46 306.838 1029.44 306.741C1029.43 306.644 1029.43 306.54 1029.43 306.429V305.972C1029.43 305.882 1029.43 305.795 1029.44 305.71C1029.45 305.624 1029.47 305.543 1029.48 305.467C1029.51 305.381 1029.54 305.302 1029.58 305.233C1029.62 305.161 1029.67 305.104 1029.73 305.06C1029.78 305.024 1029.83 304.995 1029.89 304.976C1029.94 304.956 1030.01 304.946 1030.08 304.946C1030.18 304.946 1030.27 304.961 1030.34 304.992C1030.41 305.02 1030.47 305.063 1030.52 305.119C1030.57 305.175 1030.61 305.243 1030.64 305.324C1030.67 305.403 1030.69 305.491 1030.69 305.59H1031.24C1031.22 305.425 1031.19 305.274 1031.13 305.139C1031.07 305.005 1031 304.889 1030.9 304.794C1030.8 304.7 1030.68 304.627 1030.54 304.575C1030.41 304.524 1030.25 304.498 1030.08 304.498C1029.95 304.498 1029.83 304.516 1029.72 304.55C1029.61 304.585 1029.52 304.634 1029.43 304.696C1029.33 304.764 1029.25 304.847 1029.18 304.944C1029.1 305.039 1029.05 305.146 1029 305.265C1028.96 305.371 1028.93 305.484 1028.9 305.603C1028.88 305.723 1028.87 305.848 1028.87 305.976V306.429C1028.87 306.564 1028.88 306.694 1028.9 306.818C1028.93 306.942 1028.96 307.058 1029 307.164C1029.05 307.271 1029.1 307.371 1029.17 307.462C1029.23 307.551 1029.31 307.628 1029.39 307.691C1029.48 307.76 1029.58 307.813 1029.7 307.851C1029.81 307.887 1029.94 307.905 1030.08 307.905C1030.24 307.905 1030.39 307.88 1030.53 307.83C1030.67 307.779 1030.79 307.706 1030.89 307.612C1030.99 307.519 1031.07 307.408 1031.13 307.277C1031.19 307.145 1031.23 306.999 1031.24 306.838ZM1032.71 306.422L1033.6 307.857H1034.26L1033.07 306.004L1034.2 304.546H1033.53L1032.66 305.701L1032.35 306.104V304.546H1031.8V307.857H1032.35V306.823L1032.71 306.422Z" fill="#24FF00"/>
<path d="M1018.62 195.865C1018.62 195.712 1018.6 195.575 1018.54 195.457C1018.49 195.336 1018.41 195.236 1018.32 195.155C1018.22 195.073 1018.11 195.011 1017.98 194.97C1017.85 194.927 1017.71 194.906 1017.56 194.906C1017.41 194.906 1017.27 194.927 1017.14 194.97C1017.01 195.011 1016.9 195.073 1016.81 195.155C1016.71 195.237 1016.64 195.338 1016.58 195.457C1016.53 195.575 1016.51 195.712 1016.51 195.865C1016.51 195.951 1016.52 196.032 1016.54 196.11C1016.57 196.187 1016.6 196.259 1016.64 196.323C1016.68 196.387 1016.73 196.445 1016.79 196.497C1016.85 196.549 1016.92 196.593 1016.99 196.63C1016.91 196.669 1016.83 196.718 1016.76 196.775C1016.69 196.83 1016.63 196.893 1016.58 196.962C1016.53 197.035 1016.5 197.114 1016.47 197.2C1016.44 197.285 1016.43 197.375 1016.43 197.47C1016.43 197.632 1016.46 197.774 1016.52 197.898C1016.57 198.02 1016.66 198.122 1016.76 198.204C1016.86 198.288 1016.98 198.352 1017.12 198.394C1017.26 198.437 1017.41 198.458 1017.57 198.458C1017.73 198.458 1017.87 198.437 1018.01 198.394C1018.15 198.352 1018.27 198.288 1018.37 198.204C1018.47 198.122 1018.55 198.019 1018.61 197.896C1018.67 197.772 1018.7 197.63 1018.7 197.47C1018.7 197.358 1018.68 197.254 1018.64 197.157C1018.61 197.06 1018.56 196.974 1018.49 196.898C1018.45 196.841 1018.39 196.791 1018.33 196.749C1018.27 196.704 1018.2 196.665 1018.13 196.632C1018.19 196.602 1018.25 196.567 1018.3 196.528C1018.35 196.488 1018.39 196.445 1018.43 196.399C1018.49 196.328 1018.54 196.247 1018.57 196.157C1018.6 196.067 1018.62 195.97 1018.62 195.865ZM1018.13 197.44C1018.13 197.528 1018.12 197.607 1018.09 197.677C1018.06 197.745 1018.02 197.804 1017.97 197.853C1017.92 197.9 1017.86 197.937 1017.79 197.962C1017.73 197.987 1017.65 198 1017.57 198C1017.48 198 1017.4 197.988 1017.33 197.964C1017.26 197.939 1017.21 197.903 1017.16 197.858C1017.11 197.81 1017.07 197.751 1017.04 197.682C1017.01 197.611 1017 197.531 1017 197.442C1017 197.355 1017.01 197.277 1017.04 197.207C1017.07 197.136 1017.1 197.074 1017.15 197.022C1017.2 196.973 1017.26 196.935 1017.33 196.908C1017.4 196.881 1017.48 196.867 1017.56 196.867C1017.65 196.867 1017.72 196.881 1017.79 196.908C1017.86 196.935 1017.92 196.973 1017.97 197.022C1018.02 197.074 1018.06 197.136 1018.09 197.207C1018.12 197.277 1018.13 197.354 1018.13 197.44ZM1018.06 195.887C1018.06 195.964 1018.05 196.035 1018.02 196.1C1018 196.164 1017.96 196.217 1017.92 196.262C1017.88 196.308 1017.83 196.343 1017.77 196.369C1017.71 196.394 1017.64 196.407 1017.57 196.407C1017.49 196.407 1017.42 196.394 1017.36 196.369C1017.3 196.343 1017.25 196.308 1017.21 196.262C1017.17 196.217 1017.13 196.164 1017.11 196.1C1017.09 196.035 1017.08 195.964 1017.08 195.887C1017.08 195.807 1017.09 195.735 1017.11 195.67C1017.13 195.605 1017.16 195.551 1017.2 195.507C1017.25 195.462 1017.3 195.428 1017.36 195.404C1017.42 195.379 1017.48 195.366 1017.56 195.366C1017.63 195.366 1017.7 195.379 1017.76 195.404C1017.82 195.43 1017.88 195.465 1017.92 195.509C1017.96 195.556 1018 195.612 1018.02 195.675C1018.04 195.738 1018.06 195.809 1018.06 195.887ZM1019.4 199.399H1019.96V198.178C1019.99 198.211 1020.03 198.242 1020.06 198.271C1020.1 198.299 1020.13 198.325 1020.17 198.347C1020.24 198.383 1020.31 198.411 1020.38 198.43C1020.46 198.449 1020.54 198.458 1020.64 198.458C1020.8 198.458 1020.94 198.425 1021.07 198.359C1021.19 198.292 1021.3 198.2 1021.38 198.083C1021.47 197.968 1021.53 197.83 1021.57 197.67C1021.62 197.51 1021.64 197.337 1021.64 197.152V197.102C1021.64 196.909 1021.62 196.733 1021.57 196.573C1021.53 196.411 1021.47 196.273 1021.38 196.157C1021.3 196.042 1021.19 195.952 1021.06 195.889C1020.94 195.826 1020.79 195.794 1020.63 195.794C1020.55 195.794 1020.47 195.803 1020.39 195.822C1020.32 195.84 1020.25 195.865 1020.19 195.898C1020.14 195.924 1020.1 195.954 1020.05 195.989C1020.01 196.023 1019.98 196.062 1019.94 196.105L1019.92 195.841H1019.4V199.399ZM1021.07 197.102V197.152C1021.07 197.266 1021.06 197.375 1021.04 197.478C1021.02 197.579 1020.98 197.669 1020.93 197.748C1020.89 197.826 1020.82 197.888 1020.75 197.934C1020.67 197.978 1020.58 198 1020.48 198C1020.41 198 1020.35 197.993 1020.3 197.979C1020.25 197.963 1020.2 197.942 1020.15 197.917C1020.11 197.89 1020.08 197.858 1020.04 197.822C1020.01 197.786 1019.99 197.745 1019.96 197.701V196.559C1019.99 196.511 1020.02 196.468 1020.05 196.43C1020.09 196.392 1020.13 196.361 1020.17 196.335C1020.21 196.312 1020.26 196.293 1020.31 196.281C1020.36 196.268 1020.41 196.262 1020.47 196.262C1020.58 196.262 1020.67 196.284 1020.75 196.328C1020.82 196.373 1020.88 196.433 1020.93 196.509C1020.98 196.585 1021.02 196.674 1021.04 196.777C1021.06 196.878 1021.07 196.987 1021.07 197.102Z" fill="black"/>
<rect x="1033.71" y="191.096" width="24.982" height="10.957" fill="#24FF00"/>
<path d="M1044.4 198.411V194.953H1043.85V196.399H1042.68V194.953H1042.13V198.411H1042.68V196.87H1043.85V198.411H1044.4ZM1045.06 198.411H1045.94C1046.1 198.411 1046.24 198.392 1046.38 198.354C1046.52 198.316 1046.65 198.261 1046.76 198.19C1046.86 198.125 1046.96 198.047 1047.04 197.955C1047.12 197.863 1047.19 197.761 1047.25 197.649C1047.31 197.533 1047.36 197.406 1047.39 197.266C1047.42 197.125 1047.44 196.977 1047.44 196.82V196.549C1047.44 196.386 1047.42 196.232 1047.39 196.088C1047.35 195.944 1047.3 195.812 1047.24 195.692C1047.18 195.576 1047.1 195.472 1047.01 195.378C1046.92 195.285 1046.82 195.207 1046.7 195.146C1046.59 195.085 1046.47 195.039 1046.34 195.005C1046.21 194.971 1046.07 194.953 1045.92 194.953H1045.06V198.411ZM1045.64 195.419H1045.92C1046.01 195.42 1046.1 195.431 1046.18 195.452C1046.25 195.471 1046.33 195.499 1046.39 195.535C1046.48 195.584 1046.55 195.648 1046.62 195.727C1046.68 195.805 1046.73 195.892 1046.77 195.989C1046.8 196.068 1046.82 196.154 1046.84 196.247C1046.85 196.341 1046.86 196.44 1046.86 196.544V196.82C1046.86 196.926 1046.85 197.026 1046.84 197.119C1046.82 197.212 1046.8 197.299 1046.77 197.378C1046.73 197.471 1046.69 197.554 1046.63 197.627C1046.58 197.698 1046.52 197.758 1046.45 197.805C1046.38 197.851 1046.3 197.887 1046.22 197.912C1046.13 197.936 1046.04 197.948 1045.94 197.948H1045.64V195.419ZM1048.1 194.953V195.426H1048.82V197.941H1048.1V198.411H1050.13V197.941H1049.4V195.426H1050.13V194.953H1048.1Z" fill="black"/>
<rect x="1006.53" y="162.17" width="6.57422" height="1.75313" fill="#24FF00"/>
<rect x="1007.41" y="92.9209" width="7.0125" height="2.19141" fill="#24FF00"/>
<circle cx="1028.45" cy="280.943" r="8.32734" transform="rotate(180 1028.45 280.943)" fill="#24FF00"/>
<circle cx="1028.23" cy="336.824" r="2.94907" transform="rotate(180 1028.23 336.824)" stroke="#24FF00" stroke-width="1.55264"/>
<path d="M1031.95 282.696L1028.45 278.752L1024.94 282.696" stroke="black" stroke-width="1.55264" stroke-linejoin="round"/>
<rect x="1006.53" y="272.617" width="3.06797" height="67.9336" rx="1.53398" fill="#24FF00"/>
<path d="M1007.41 173.707V174.11H1007.71C1007.8 174.11 1007.88 174.12 1007.95 174.142C1008.02 174.162 1008.09 174.193 1008.14 174.234C1008.19 174.277 1008.23 174.33 1008.26 174.394C1008.28 174.459 1008.3 174.536 1008.3 174.626C1008.3 174.705 1008.28 174.777 1008.26 174.84C1008.24 174.901 1008.2 174.952 1008.16 174.994C1008.11 175.038 1008.06 175.071 1007.99 175.094C1007.92 175.116 1007.85 175.126 1007.77 175.126C1007.69 175.126 1007.62 175.115 1007.56 175.092C1007.49 175.069 1007.44 175.037 1007.39 174.996C1007.35 174.956 1007.31 174.907 1007.28 174.85C1007.26 174.792 1007.25 174.728 1007.25 174.66H1006.74C1006.74 174.805 1006.76 174.933 1006.82 175.043C1006.88 175.151 1006.95 175.243 1007.05 175.317C1007.14 175.391 1007.25 175.447 1007.37 175.484C1007.5 175.521 1007.63 175.539 1007.76 175.539C1007.91 175.539 1008.05 175.519 1008.17 175.479C1008.3 175.438 1008.41 175.378 1008.51 175.3C1008.6 175.223 1008.67 175.128 1008.73 175.015C1008.78 174.901 1008.81 174.771 1008.81 174.626C1008.81 174.547 1008.8 174.471 1008.78 174.399C1008.76 174.324 1008.73 174.255 1008.69 174.191C1008.65 174.128 1008.6 174.072 1008.53 174.022C1008.47 173.971 1008.39 173.929 1008.29 173.898C1008.37 173.862 1008.44 173.819 1008.5 173.767C1008.56 173.716 1008.61 173.661 1008.64 173.603C1008.68 173.543 1008.71 173.481 1008.73 173.416C1008.75 173.352 1008.76 173.288 1008.76 173.224C1008.76 173.078 1008.74 172.951 1008.69 172.841C1008.64 172.731 1008.57 172.638 1008.48 172.563C1008.4 172.488 1008.29 172.433 1008.17 172.396C1008.04 172.357 1007.91 172.338 1007.76 172.338C1007.62 172.338 1007.48 172.359 1007.36 172.402C1007.24 172.445 1007.14 172.504 1007.05 172.58C1006.96 172.657 1006.89 172.747 1006.84 172.851C1006.79 172.956 1006.77 173.07 1006.77 173.194H1007.28C1007.28 173.127 1007.29 173.066 1007.32 173.012C1007.34 172.958 1007.38 172.911 1007.42 172.873C1007.46 172.834 1007.51 172.805 1007.57 172.785C1007.63 172.764 1007.7 172.753 1007.77 172.753C1007.85 172.753 1007.92 172.764 1007.98 172.785C1008.04 172.806 1008.09 172.836 1008.13 172.875C1008.17 172.916 1008.2 172.966 1008.22 173.025C1008.24 173.083 1008.25 173.15 1008.25 173.224C1008.25 173.292 1008.24 173.356 1008.21 173.416C1008.19 173.475 1008.16 173.524 1008.12 173.564C1008.08 173.61 1008.02 173.645 1007.95 173.671C1007.88 173.695 1007.8 173.707 1007.71 173.707H1007.41ZM1011.18 174.386V172.381H1010.65L1009.31 174.486L1009.32 174.801H1010.67V175.497H1011.18V174.801H1011.57V174.386H1011.18ZM1009.83 174.386L1010.61 173.177L1010.67 173.065V174.386H1009.83ZM1014.11 175.497V175.083H1012.66L1013.36 174.343C1013.45 174.246 1013.53 174.152 1013.61 174.061C1013.69 173.969 1013.75 173.879 1013.81 173.789C1013.87 173.699 1013.91 173.608 1013.94 173.517C1013.97 173.424 1013.99 173.329 1013.99 173.23C1013.99 173.099 1013.97 172.979 1013.93 172.871C1013.88 172.761 1013.82 172.667 1013.74 172.588C1013.66 172.51 1013.56 172.448 1013.43 172.404C1013.31 172.36 1013.18 172.338 1013.03 172.338C1012.86 172.338 1012.72 172.364 1012.58 172.417C1012.45 172.47 1012.34 172.541 1012.25 172.631C1012.16 172.721 1012.08 172.826 1012.03 172.948C1011.98 173.068 1011.96 173.195 1011.96 173.331H1012.47C1012.47 173.241 1012.48 173.161 1012.51 173.091C1012.53 173.02 1012.56 172.959 1012.61 172.909C1012.65 172.862 1012.71 172.826 1012.78 172.8C1012.84 172.774 1012.92 172.762 1013.01 172.762C1013.09 172.762 1013.15 172.774 1013.21 172.798C1013.27 172.822 1013.32 172.856 1013.36 172.898C1013.4 172.941 1013.43 172.993 1013.45 173.053C1013.47 173.112 1013.48 173.179 1013.48 173.252C1013.48 173.306 1013.48 173.36 1013.46 173.414C1013.45 173.467 1013.42 173.524 1013.39 173.585C1013.35 173.647 1013.31 173.715 1013.25 173.789C1013.19 173.862 1013.12 173.944 1013.04 174.037L1012.02 175.141V175.497H1014.11ZM1016.7 174.334V173.919H1014.98V174.334H1016.7ZM1019.39 174.309V173.57C1019.39 173.371 1019.37 173.195 1019.32 173.042C1019.27 172.888 1019.21 172.758 1019.12 172.652C1019.03 172.548 1018.93 172.47 1018.8 172.417C1018.68 172.363 1018.54 172.336 1018.38 172.336C1018.22 172.336 1018.08 172.363 1017.95 172.417C1017.83 172.47 1017.72 172.548 1017.64 172.652C1017.55 172.758 1017.48 172.888 1017.44 173.042C1017.39 173.195 1017.37 173.371 1017.37 173.57V174.309C1017.37 174.509 1017.39 174.685 1017.44 174.84C1017.48 174.992 1017.55 175.12 1017.64 175.223C1017.73 175.328 1017.83 175.408 1017.96 175.462C1018.08 175.515 1018.23 175.541 1018.38 175.541C1018.54 175.541 1018.68 175.515 1018.81 175.462C1018.93 175.408 1019.04 175.328 1019.12 175.223C1019.21 175.12 1019.28 174.992 1019.32 174.84C1019.37 174.685 1019.39 174.509 1019.39 174.309ZM1017.88 174.127C1017.88 174.086 1017.88 174.051 1017.88 174.022C1017.88 173.993 1017.88 173.952 1017.88 173.898V173.478C1017.88 173.35 1017.89 173.239 1017.92 173.145C1017.94 173.049 1017.97 172.971 1018.02 172.911C1018.06 172.859 1018.11 172.819 1018.17 172.791C1018.23 172.764 1018.3 172.751 1018.38 172.751C1018.45 172.751 1018.52 172.762 1018.57 172.785C1018.63 172.808 1018.68 172.842 1018.72 172.888C1018.77 172.939 1018.8 173.005 1018.83 173.087C1018.85 173.168 1018.87 173.264 1018.87 173.376L1017.88 174.127ZM1018.88 174.394C1018.88 174.526 1018.86 174.64 1018.84 174.737C1018.82 174.834 1018.78 174.912 1018.74 174.972C1018.69 175.024 1018.64 175.063 1018.59 175.09C1018.53 175.116 1018.46 175.128 1018.38 175.128C1018.3 175.128 1018.23 175.115 1018.17 175.088C1018.12 175.061 1018.07 175.02 1018.03 174.966C1017.99 174.916 1017.95 174.853 1017.93 174.777C1017.91 174.702 1017.89 174.615 1017.89 174.516L1018.88 173.769C1018.88 173.811 1018.88 173.851 1018.88 173.889C1018.88 173.928 1018.88 173.965 1018.88 174.001V174.394ZM1022.02 174.309V173.57C1022.02 173.371 1022 173.195 1021.95 173.042C1021.91 172.888 1021.84 172.758 1021.75 172.652C1021.67 172.548 1021.56 172.47 1021.43 172.417C1021.31 172.363 1021.17 172.336 1021.01 172.336C1020.85 172.336 1020.71 172.363 1020.59 172.417C1020.46 172.47 1020.36 172.548 1020.27 172.652C1020.18 172.758 1020.12 172.888 1020.07 173.042C1020.02 173.195 1020 173.371 1020 173.57V174.309C1020 174.509 1020.02 174.685 1020.07 174.84C1020.12 174.992 1020.18 175.12 1020.27 175.223C1020.36 175.328 1020.47 175.408 1020.59 175.462C1020.72 175.515 1020.86 175.541 1021.01 175.541C1021.17 175.541 1021.31 175.515 1021.44 175.462C1021.56 175.408 1021.67 175.328 1021.75 175.223C1021.84 175.12 1021.91 174.992 1021.95 174.84C1022 174.685 1022.02 174.509 1022.02 174.309ZM1020.51 174.127C1020.51 174.086 1020.51 174.051 1020.51 174.022C1020.51 173.993 1020.51 173.952 1020.51 173.898V173.478C1020.51 173.35 1020.53 173.239 1020.55 173.145C1020.57 173.049 1020.61 172.971 1020.65 172.911C1020.69 172.859 1020.74 172.819 1020.8 172.791C1020.86 172.764 1020.93 172.751 1021.01 172.751C1021.08 172.751 1021.15 172.762 1021.2 172.785C1021.26 172.808 1021.31 172.842 1021.35 172.888C1021.4 172.939 1021.43 173.005 1021.46 173.087C1021.48 173.168 1021.5 173.264 1021.5 173.376L1020.51 174.127ZM1021.51 174.394C1021.51 174.526 1021.5 174.64 1021.47 174.737C1021.45 174.834 1021.41 174.912 1021.37 174.972C1021.33 175.024 1021.28 175.063 1021.22 175.09C1021.16 175.116 1021.09 175.128 1021.01 175.128C1020.94 175.128 1020.87 175.115 1020.81 175.088C1020.75 175.061 1020.7 175.02 1020.66 174.966C1020.62 174.916 1020.59 174.853 1020.56 174.777C1020.54 174.702 1020.53 174.615 1020.52 174.516L1021.51 173.769C1021.51 173.811 1021.51 173.851 1021.51 173.889C1021.51 173.928 1021.51 173.965 1021.51 174.001V174.394ZM1026.28 173.87L1025.63 172.381H1025.05L1026.02 174.369L1026.02 175.497H1026.53L1026.53 174.384L1027.51 172.381H1026.93L1026.28 173.87ZM1029.87 175.901V175.497H1027.91V175.901H1029.87ZM1031.28 175.497H1031.79L1032.74 172.381H1032.18L1031.59 174.536L1031.53 174.724L1031.48 174.538L1030.89 172.381H1030.33L1031.28 175.497ZM1035.01 174.099V173.684H1033.72V172.806H1035.21V172.381H1033.2V175.497H1035.22V175.073H1033.72V174.099H1035.01ZM1036.36 173.707V174.11H1036.67C1036.76 174.11 1036.84 174.12 1036.91 174.142C1036.98 174.162 1037.04 174.193 1037.09 174.234C1037.14 174.277 1037.18 174.33 1037.21 174.394C1037.24 174.459 1037.25 174.536 1037.25 174.626C1037.25 174.705 1037.24 174.777 1037.21 174.84C1037.19 174.901 1037.16 174.952 1037.11 174.994C1037.07 175.038 1037.01 175.071 1036.94 175.094C1036.88 175.116 1036.81 175.126 1036.72 175.126C1036.65 175.126 1036.57 175.115 1036.51 175.092C1036.45 175.069 1036.39 175.037 1036.35 174.996C1036.3 174.956 1036.26 174.907 1036.24 174.85C1036.21 174.792 1036.2 174.728 1036.2 174.66H1035.69C1035.69 174.805 1035.72 174.933 1035.77 175.043C1035.83 175.151 1035.91 175.243 1036 175.317C1036.1 175.391 1036.2 175.447 1036.33 175.484C1036.45 175.521 1036.58 175.539 1036.72 175.539C1036.86 175.539 1037 175.519 1037.13 175.479C1037.26 175.438 1037.37 175.378 1037.46 175.3C1037.56 175.223 1037.63 175.128 1037.68 175.015C1037.74 174.901 1037.76 174.771 1037.76 174.626C1037.76 174.547 1037.75 174.471 1037.73 174.399C1037.72 174.324 1037.69 174.255 1037.64 174.191C1037.6 174.128 1037.55 174.072 1037.48 174.022C1037.42 173.971 1037.34 173.929 1037.25 173.898C1037.33 173.862 1037.4 173.819 1037.45 173.767C1037.51 173.716 1037.56 173.661 1037.6 173.603C1037.64 173.543 1037.67 173.481 1037.69 173.416C1037.71 173.352 1037.72 173.288 1037.72 173.224C1037.72 173.078 1037.69 172.951 1037.64 172.841C1037.59 172.731 1037.53 172.638 1037.44 172.563C1037.35 172.488 1037.24 172.433 1037.12 172.396C1037 172.357 1036.86 172.338 1036.72 172.338C1036.57 172.338 1036.44 172.359 1036.32 172.402C1036.2 172.445 1036.09 172.504 1036.01 172.58C1035.92 172.657 1035.85 172.747 1035.8 172.851C1035.75 172.956 1035.72 173.07 1035.72 173.194H1036.23C1036.23 173.127 1036.25 173.066 1036.27 173.012C1036.3 172.958 1036.33 172.911 1036.38 172.873C1036.42 172.834 1036.47 172.805 1036.53 172.785C1036.59 172.764 1036.65 172.753 1036.72 172.753C1036.8 172.753 1036.87 172.764 1036.93 172.785C1036.99 172.806 1037.04 172.836 1037.08 172.875C1037.12 172.916 1037.15 172.966 1037.17 173.025C1037.19 173.083 1037.2 173.15 1037.2 173.224C1037.2 173.292 1037.19 173.356 1037.17 173.416C1037.15 173.475 1037.12 173.524 1037.08 173.564C1037.03 173.61 1036.97 173.645 1036.91 173.671C1036.84 173.695 1036.76 173.707 1036.67 173.707H1036.36ZM1008.68 179.099V178.684H1007.4V177.806H1008.89V177.381H1006.88V180.497H1008.9V180.073H1007.4V179.099H1008.68ZM1010.04 180.073V177.381H1009.53V180.497H1011.53V180.073H1010.04ZM1014.08 180.901V180.497H1012.12V180.901H1014.08ZM1016.15 180.497V177.381H1016.11L1014.83 177.856V178.307L1015.63 178.014V180.497H1016.15ZM1017.93 178.707V179.11H1018.24C1018.33 179.11 1018.41 179.12 1018.48 179.142C1018.55 179.162 1018.62 179.193 1018.67 179.234C1018.72 179.277 1018.76 179.33 1018.78 179.394C1018.81 179.459 1018.83 179.536 1018.83 179.626C1018.83 179.705 1018.81 179.777 1018.79 179.84C1018.77 179.901 1018.73 179.952 1018.69 179.994C1018.64 180.038 1018.59 180.071 1018.52 180.094C1018.45 180.116 1018.38 180.126 1018.3 180.126C1018.22 180.126 1018.15 180.115 1018.08 180.092C1018.02 180.069 1017.97 180.037 1017.92 179.996C1017.87 179.956 1017.84 179.907 1017.81 179.85C1017.79 179.792 1017.78 179.728 1017.78 179.66H1017.27C1017.27 179.805 1017.29 179.933 1017.35 180.043C1017.41 180.151 1017.48 180.243 1017.58 180.317C1017.67 180.391 1017.78 180.447 1017.9 180.484C1018.03 180.521 1018.16 180.539 1018.29 180.539C1018.44 180.539 1018.58 180.519 1018.7 180.479C1018.83 180.438 1018.94 180.378 1019.04 180.3C1019.13 180.223 1019.2 180.128 1019.26 180.015C1019.31 179.901 1019.34 179.771 1019.34 179.626C1019.34 179.547 1019.33 179.471 1019.31 179.399C1019.29 179.324 1019.26 179.255 1019.22 179.191C1019.18 179.128 1019.12 179.072 1019.06 179.022C1018.99 178.971 1018.92 178.929 1018.82 178.898C1018.9 178.862 1018.97 178.819 1019.03 178.767C1019.09 178.716 1019.14 178.661 1019.17 178.603C1019.21 178.543 1019.24 178.481 1019.26 178.416C1019.28 178.352 1019.29 178.288 1019.29 178.224C1019.29 178.078 1019.27 177.951 1019.22 177.841C1019.17 177.731 1019.1 177.638 1019.01 177.563C1018.92 177.488 1018.82 177.433 1018.69 177.396C1018.57 177.357 1018.44 177.338 1018.29 177.338C1018.15 177.338 1018.01 177.359 1017.89 177.402C1017.77 177.445 1017.67 177.504 1017.58 177.58C1017.49 177.657 1017.42 177.747 1017.37 177.851C1017.32 177.956 1017.3 178.07 1017.3 178.194H1017.81C1017.81 178.127 1017.82 178.066 1017.84 178.012C1017.87 177.958 1017.91 177.911 1017.95 177.873C1017.99 177.834 1018.04 177.805 1018.1 177.785C1018.16 177.764 1018.23 177.753 1018.3 177.753C1018.38 177.753 1018.44 177.764 1018.5 177.785C1018.57 177.806 1018.62 177.836 1018.66 177.875C1018.7 177.916 1018.73 177.966 1018.75 178.025C1018.77 178.083 1018.78 178.15 1018.78 178.224C1018.78 178.292 1018.77 178.356 1018.74 178.416C1018.72 178.475 1018.69 178.524 1018.65 178.564C1018.61 178.61 1018.55 178.645 1018.48 178.671C1018.41 178.695 1018.33 178.707 1018.24 178.707H1017.93ZM1022.01 180.497V180.083H1020.56L1021.25 179.343C1021.34 179.246 1021.43 179.152 1021.5 179.061C1021.58 178.969 1021.65 178.879 1021.71 178.789C1021.76 178.699 1021.81 178.608 1021.84 178.517C1021.87 178.424 1021.89 178.329 1021.89 178.23C1021.89 178.099 1021.87 177.979 1021.82 177.871C1021.78 177.761 1021.72 177.667 1021.64 177.588C1021.55 177.51 1021.45 177.448 1021.33 177.404C1021.21 177.36 1021.08 177.338 1020.92 177.338C1020.76 177.338 1020.61 177.364 1020.48 177.417C1020.35 177.47 1020.24 177.541 1020.15 177.631C1020.05 177.721 1019.98 177.826 1019.93 177.948C1019.88 178.068 1019.86 178.195 1019.86 178.331H1020.37C1020.37 178.241 1020.38 178.161 1020.4 178.091C1020.43 178.02 1020.46 177.959 1020.51 177.909C1020.55 177.862 1020.61 177.826 1020.67 177.8C1020.74 177.774 1020.82 177.762 1020.91 177.762C1020.98 177.762 1021.05 177.774 1021.1 177.798C1021.16 177.822 1021.21 177.856 1021.25 177.898C1021.3 177.941 1021.33 177.993 1021.35 178.053C1021.37 178.112 1021.38 178.179 1021.38 178.252C1021.38 178.306 1021.37 178.36 1021.36 178.414C1021.34 178.467 1021.32 178.524 1021.28 178.585C1021.25 178.647 1021.2 178.715 1021.14 178.789C1021.09 178.862 1021.02 178.944 1020.93 179.037L1019.92 180.141V180.497H1022.01ZM1024.64 180.497V180.083H1023.19L1023.88 179.343C1023.98 179.246 1024.06 179.152 1024.14 179.061C1024.22 178.969 1024.28 178.879 1024.34 178.789C1024.4 178.699 1024.44 178.608 1024.47 178.517C1024.5 178.424 1024.52 178.329 1024.52 178.23C1024.52 178.099 1024.5 177.979 1024.46 177.871C1024.41 177.761 1024.35 177.667 1024.27 177.588C1024.19 177.51 1024.08 177.448 1023.96 177.404C1023.84 177.36 1023.71 177.338 1023.55 177.338C1023.39 177.338 1023.24 177.364 1023.11 177.417C1022.98 177.47 1022.87 177.541 1022.78 177.631C1022.69 177.721 1022.61 177.826 1022.56 177.948C1022.51 178.068 1022.49 178.195 1022.49 178.331H1023C1023 178.241 1023.01 178.161 1023.04 178.091C1023.06 178.02 1023.09 177.959 1023.14 177.909C1023.18 177.862 1023.24 177.826 1023.31 177.8C1023.37 177.774 1023.45 177.762 1023.54 177.762C1023.62 177.762 1023.68 177.774 1023.74 177.798C1023.8 177.822 1023.84 177.856 1023.89 177.898C1023.93 177.941 1023.96 177.993 1023.98 178.053C1024 178.112 1024.01 178.179 1024.01 178.252C1024.01 178.306 1024 178.36 1023.99 178.414C1023.97 178.467 1023.95 178.524 1023.92 178.585C1023.88 178.647 1023.83 178.715 1023.78 178.789C1023.72 178.862 1023.65 178.944 1023.57 179.037L1022.55 180.141V180.497H1024.64Z" fill="#24FF00"/>
<circle opacity="0.15" cx="608.135" cy="15.3465" r="12.2719" fill="#24FF00"/>
<path d="M573.784 39.2253V38.2705H570.821V36.2524H574.257V35.2729H569.635V42.4395H574.281V41.4649H570.821V39.2253H573.784ZM586.271 42.4395V41.4895H582.934L584.529 39.7865C584.739 39.5633 584.933 39.3468 585.11 39.1368C585.29 38.9267 585.446 38.7184 585.577 38.5116C585.705 38.3049 585.805 38.0965 585.878 37.8865C585.953 37.6732 585.991 37.4534 585.991 37.227C585.991 36.9251 585.942 36.6494 585.843 36.4001C585.745 36.1474 585.602 35.9308 585.415 35.7503C585.225 35.5699 584.99 35.4288 584.711 35.327C584.436 35.2253 584.122 35.1745 583.771 35.1745C583.397 35.1745 583.057 35.2352 582.752 35.3566C582.45 35.478 582.194 35.6421 581.984 35.8488C581.771 36.0555 581.607 36.2983 581.492 36.5773C581.377 36.8529 581.32 37.1466 581.32 37.4583H582.501C582.501 37.2516 582.527 37.0678 582.58 36.907C582.632 36.743 582.711 36.6035 582.816 36.4887C582.918 36.3804 583.046 36.2967 583.2 36.2376C583.354 36.1786 583.536 36.149 583.746 36.149C583.91 36.149 584.058 36.1769 584.189 36.2327C584.324 36.2885 584.439 36.3656 584.534 36.464C584.629 36.5625 584.701 36.6806 584.751 36.8184C584.8 36.9563 584.824 37.1088 584.824 37.2762C584.824 37.4009 584.806 37.5256 584.77 37.6503C584.737 37.7717 584.682 37.9029 584.603 38.044C584.521 38.1851 584.414 38.341 584.283 38.5116C584.152 38.679 583.989 38.8693 583.796 39.0826L581.463 41.6224V42.4395H586.271ZM589.008 38.3246V39.25H589.712C589.915 39.25 590.099 39.2746 590.263 39.3238C590.431 39.3697 590.573 39.4403 590.691 39.5354C590.81 39.6339 590.9 39.7569 590.962 39.9046C591.025 40.0523 591.056 40.2295 591.056 40.4362C591.056 40.6199 591.028 40.784 590.972 40.9284C590.92 41.0695 590.842 41.1876 590.741 41.2828C590.636 41.3845 590.506 41.4616 590.352 41.5141C590.201 41.5633 590.03 41.588 589.84 41.588C589.663 41.588 589.5 41.5617 589.353 41.5092C589.208 41.4567 589.084 41.3829 588.979 41.2877C588.87 41.1958 588.787 41.0843 588.728 40.953C588.672 40.8185 588.644 40.6724 588.644 40.5149H587.468C587.468 40.8496 587.532 41.1433 587.659 41.396C587.791 41.6454 587.965 41.8554 588.181 42.026C588.398 42.1967 588.649 42.3246 588.934 42.41C589.22 42.4953 589.517 42.5379 589.825 42.5379C590.166 42.5379 590.483 42.492 590.775 42.4001C591.07 42.3049 591.326 42.1671 591.543 41.9867C591.756 41.8095 591.924 41.5912 592.045 41.332C592.17 41.0695 592.232 40.7709 592.232 40.4362C592.232 40.2557 592.211 40.0818 592.168 39.9144C592.125 39.7438 592.057 39.5847 591.961 39.437C591.866 39.2926 591.743 39.163 591.592 39.0482C591.445 38.93 591.264 38.8349 591.051 38.7627C591.231 38.6806 591.389 38.5806 591.523 38.4624C591.658 38.3443 591.769 38.218 591.858 38.0834C591.947 37.9456 592.012 37.8029 592.055 37.6552C592.101 37.5075 592.124 37.3599 592.124 37.2122C592.124 36.8775 592.068 36.5838 591.956 36.3312C591.845 36.0785 591.687 35.8652 591.484 35.6913C591.284 35.5206 591.041 35.3927 590.755 35.3074C590.473 35.2188 590.163 35.1745 589.825 35.1745C589.494 35.1745 589.189 35.2237 588.91 35.3221C588.634 35.4206 588.395 35.5567 588.191 35.7307C587.988 35.9079 587.828 36.1162 587.714 36.3558C587.599 36.5953 587.541 36.8578 587.541 37.1433H588.718C588.718 36.9891 588.746 36.8496 588.801 36.7249C588.86 36.6002 588.941 36.4936 589.043 36.405C589.141 36.3164 589.258 36.2491 589.392 36.2032C589.53 36.154 589.679 36.1293 589.84 36.1293C590.02 36.1293 590.18 36.154 590.317 36.2032C590.459 36.2524 590.575 36.3213 590.667 36.4099C590.759 36.5051 590.828 36.6199 590.874 36.7545C590.923 36.889 590.947 37.0416 590.947 37.2122C590.947 37.3697 590.921 37.5174 590.869 37.6552C590.819 37.7897 590.747 37.9029 590.652 37.9948C590.55 38.0998 590.421 38.1819 590.263 38.2409C590.106 38.2967 589.922 38.3246 589.712 38.3246H589.008ZM594.821 36.4936C594.821 36.6773 594.856 36.848 594.925 37.0055C594.993 37.163 595.087 37.3008 595.205 37.4189C595.323 37.5371 595.461 37.6306 595.619 37.6995C595.776 37.7651 595.943 37.7979 596.121 37.7979C596.294 37.7979 596.459 37.7651 596.613 37.6995C596.767 37.6306 596.902 37.5371 597.016 37.4189C597.135 37.3008 597.226 37.163 597.292 37.0055C597.361 36.8447 597.395 36.6741 597.395 36.4936C597.395 36.3164 597.361 36.1474 597.292 35.9866C597.223 35.8258 597.131 35.6847 597.016 35.5633C596.902 35.4452 596.767 35.3517 596.613 35.2827C596.459 35.2106 596.294 35.1745 596.121 35.1745C595.943 35.1745 595.776 35.2106 595.619 35.2827C595.461 35.3517 595.323 35.4452 595.205 35.5633C595.087 35.6847 594.993 35.8258 594.925 35.9866C594.856 36.1474 594.821 36.3164 594.821 36.4936ZM595.491 36.4936C595.491 36.405 595.507 36.3213 595.54 36.2426C595.573 36.1638 595.619 36.0949 595.678 36.0358C595.733 35.9768 595.799 35.9325 595.874 35.9029C595.953 35.8701 596.035 35.8537 596.121 35.8537C596.206 35.8537 596.285 35.8701 596.357 35.9029C596.432 35.9325 596.498 35.9768 596.554 36.0358C596.606 36.0949 596.647 36.1638 596.677 36.2426C596.71 36.3213 596.726 36.405 596.726 36.4936C596.726 36.5822 596.71 36.6659 596.677 36.7446C596.647 36.8201 596.606 36.8841 596.554 36.9366C596.498 36.9924 596.432 37.0367 596.357 37.0695C596.285 37.099 596.206 37.1138 596.121 37.1138C596.035 37.1138 595.953 37.099 595.874 37.0695C595.799 37.0367 595.733 36.9907 595.678 36.9316C595.619 36.8791 595.573 36.8152 595.54 36.7397C595.507 36.6642 595.491 36.5822 595.491 36.4936ZM603.74 39.8849V35.2729H602.529L599.433 40.1163L599.463 40.8398H602.564V42.4395H603.74V40.8398H604.641V39.8849H603.74ZM600.634 39.8849L602.426 37.1039L602.564 36.848V39.8849H600.634ZM609.794 39.8849V35.2729H608.583L605.487 40.1163L605.517 40.8398H608.618V42.4395H609.794V40.8398H610.695V39.8849H609.794ZM606.688 39.8849L608.48 37.1039L608.618 36.848V39.8849H606.688ZM614.48 35.5141V34.8791H613.545V35.5436V37.4189H614.357L614.48 35.5141ZM618.211 38.8857L619.151 39.1171C619.213 39.058 619.277 39.0039 619.343 38.9546C619.412 38.9021 619.487 38.8562 619.569 38.8168C619.648 38.7807 619.738 38.7512 619.84 38.7282C619.945 38.7052 620.068 38.6938 620.209 38.6938C620.423 38.6938 620.61 38.7299 620.77 38.802C620.931 38.871 621.066 38.9694 621.174 39.0974C621.282 39.2253 621.363 39.3763 621.415 39.5502C621.471 39.7208 621.499 39.9095 621.499 40.1163C621.499 40.3295 621.476 40.5281 621.43 40.7118C621.384 40.8923 621.315 41.0465 621.223 41.1745C621.125 41.3058 621.003 41.4075 620.859 41.4797C620.715 41.5519 620.544 41.588 620.347 41.588C620.012 41.588 619.737 41.4944 619.52 41.3074C619.307 41.1204 619.179 40.8513 619.136 40.5002H617.989C618.009 40.8316 618.086 41.1253 618.221 41.3812C618.359 41.6339 618.534 41.8455 618.747 42.0162C618.961 42.1901 619.205 42.3214 619.481 42.41C619.757 42.4953 620.045 42.5379 620.347 42.5379C620.744 42.5379 621.089 42.4756 621.381 42.3509C621.673 42.2262 621.914 42.0556 622.104 41.839C622.298 41.6224 622.441 41.3697 622.533 41.081C622.628 40.7889 622.675 40.4788 622.675 40.1507C622.675 39.7799 622.626 39.4468 622.528 39.1515C622.429 38.8529 622.288 38.5986 622.104 38.3886C621.917 38.1819 621.689 38.0227 621.42 37.9111C621.154 37.7996 620.853 37.7438 620.515 37.7438C620.265 37.7438 620.044 37.775 619.85 37.8373C619.66 37.8997 619.505 37.9653 619.387 38.0342L619.574 36.3164H622.449V35.2729H618.595L618.211 38.8857ZM627.957 39.8849V35.2729H626.746L623.65 40.1163L623.679 40.8398H626.78V42.4395H627.957V40.8398H628.857V39.8849H627.957ZM624.851 39.8849L626.643 37.1039L626.78 36.848V39.8849H624.851ZM631.609 41.7307C631.609 41.9571 631.683 42.1491 631.83 42.3066C631.981 42.4608 632.191 42.5379 632.46 42.5379C632.726 42.5379 632.935 42.4608 633.086 42.3066C633.24 42.1524 633.317 41.9604 633.317 41.7307C633.317 41.501 633.241 41.3074 633.091 41.1499C632.94 40.9891 632.73 40.9087 632.46 40.9087C632.185 40.9087 631.973 40.9891 631.826 41.1499C631.681 41.3107 631.609 41.5043 631.609 41.7307ZM640.065 39.8849V35.2729H638.854L635.758 40.1163L635.788 40.8398H638.889V42.4395H640.065V40.8398H640.966V39.8849H640.065ZM636.959 39.8849L638.751 37.1039L638.889 36.848V39.8849H636.959ZM643.924 35.4107V34.8791H643.023V35.4599V37.3746H643.796L643.924 35.4107ZM645.834 35.4107V34.8791H644.938V35.4501V37.3746H645.711L645.834 35.4107Z" fill="#24FF00"/>
<rect x="718.144" y="11.8394" width="1.75313" height="5.25938" fill="#24FF00"/>
<rect x="266.714" y="11.8394" width="1.75313" height="5.25938" fill="#24FF00"/>
<rect x="947.365" y="11.8394" width="1.75313" height="5.25938" fill="#24FF00"/>
<rect x="495.935" y="11.8394" width="1.75313" height="5.25938" fill="#24FF00"/>
<path d="M832.115 16.0116C832.115 16.1828 832.077 16.3344 832.002 16.4664C831.931 16.5983 831.835 16.7089 831.713 16.7981C831.589 16.8908 831.441 16.9604 831.269 17.0067C831.102 17.0531 830.92 17.0763 830.724 17.0763C830.492 17.0763 830.278 17.0477 830.082 16.9907C829.889 16.9336 829.721 16.8462 829.579 16.7285C829.432 16.6144 829.317 16.4699 829.231 16.2952C829.149 16.1168 829.099 15.9082 829.081 15.6692H827.797C827.801 16.0437 827.876 16.3754 828.022 16.6643C828.172 16.9532 828.373 17.2047 828.626 17.4187C828.901 17.647 829.224 17.8217 829.595 17.943C829.966 18.0607 830.342 18.1196 830.724 18.1196C831.084 18.1196 831.426 18.075 831.751 17.9858C832.075 17.8931 832.361 17.7557 832.607 17.5738C832.849 17.3991 833.042 17.1797 833.185 16.9158C833.331 16.6518 833.404 16.3469 833.404 16.0009C833.404 15.6264 833.32 15.2965 833.153 15.0111C832.989 14.7222 832.769 14.4743 832.495 14.2675C832.273 14.1034 832.031 13.9643 831.767 13.8502C831.507 13.7325 831.239 13.6344 830.964 13.5559C830.747 13.4917 830.538 13.4222 830.338 13.3472C830.142 13.2723 829.967 13.185 829.814 13.0851C829.664 12.9852 829.545 12.8693 829.456 12.7373C829.366 12.6018 829.32 12.4449 829.317 12.2665C829.317 12.0989 829.35 11.9473 829.418 11.8118C829.486 11.6762 829.58 11.5603 829.702 11.464C829.823 11.3713 829.966 11.2999 830.13 11.25C830.297 11.1965 830.479 11.1698 830.675 11.1698C830.9 11.1698 831.098 11.2036 831.269 11.2714C831.444 11.3356 831.592 11.4248 831.713 11.5389C831.831 11.6566 831.922 11.7975 831.986 11.9616C832.054 12.1221 832.097 12.3004 832.115 12.4966H833.388C833.388 12.1435 833.317 11.8225 833.174 11.5336C833.035 11.2411 832.844 10.9896 832.602 10.7792C832.359 10.5723 832.074 10.4118 831.746 10.2977C831.421 10.18 831.07 10.1211 830.692 10.1211C830.335 10.1211 829.994 10.1711 829.67 10.2709C829.349 10.3672 829.067 10.5081 828.824 10.6936C828.582 10.8826 828.389 11.1109 828.247 11.3784C828.104 11.6423 828.033 11.9402 828.033 12.2719C828.033 12.5786 828.093 12.855 828.214 13.1011C828.339 13.3437 828.51 13.5613 828.728 13.7539C828.946 13.9429 829.208 14.1141 829.515 14.2675C829.825 14.4173 830.164 14.5439 830.531 14.6473C830.77 14.7151 830.986 14.7918 831.178 14.8774C831.375 14.9594 831.544 15.0522 831.687 15.1556C831.822 15.2662 831.927 15.391 832.002 15.5301C832.077 15.6692 832.115 15.8297 832.115 16.0116ZM839.214 14.5243V13.4864H835.993V11.2928H839.728V10.2281H834.704V18.0179H839.755V16.9586H835.993V14.5243H839.214Z" fill="#24FF00"/>
<path d="M381.653 18.0179V10.2281H380.359L380.348 15.5675L377.833 10.2281H376.528V18.0179H377.828L377.833 12.6571L380.364 18.0179H381.653ZM387.785 14.5243V13.4864H384.564V11.2928H388.298V10.2281H383.274V18.0179H388.325V16.9586H384.564V14.5243H387.785Z" fill="#24FF00"/>
<path d="M159.631 19.5804V9.92107H158.025L158.012 16.5419L154.894 9.92107H153.275V19.5804H154.887L154.894 12.933L158.032 19.5804H159.631Z" fill="#24FF00"/>
<path d="M1061.29 17.0926C1061.29 17.3049 1061.24 17.4928 1061.15 17.6565C1061.06 17.8201 1060.94 17.9572 1060.79 18.0678C1060.64 18.1828 1060.45 18.269 1060.24 18.3265C1060.03 18.384 1059.81 18.4128 1059.56 18.4128C1059.28 18.4128 1059.01 18.3774 1058.77 18.3066C1058.53 18.2359 1058.32 18.1275 1058.14 17.9815C1057.96 17.84 1057.82 17.6609 1057.71 17.4442C1057.61 17.223 1057.55 16.9643 1057.53 16.668H1055.94C1055.94 17.1324 1056.03 17.5437 1056.21 17.9019C1056.4 18.2602 1056.65 18.572 1056.96 18.8374C1057.3 19.1204 1057.7 19.3371 1058.16 19.4875C1058.62 19.6334 1059.09 19.7064 1059.56 19.7064C1060.01 19.7064 1060.44 19.6511 1060.84 19.5406C1061.24 19.4256 1061.59 19.2553 1061.9 19.0297C1062.2 18.813 1062.44 18.541 1062.62 18.2137C1062.8 17.8865 1062.89 17.5083 1062.89 17.0793C1062.89 16.6149 1062.78 16.2058 1062.58 15.852C1062.37 15.4937 1062.1 15.1864 1061.76 14.9298C1061.49 14.7264 1061.19 14.5539 1060.86 14.4124C1060.54 14.2664 1060.2 14.1448 1059.86 14.0475C1059.59 13.9679 1059.33 13.8816 1059.09 13.7888C1058.84 13.6959 1058.63 13.5875 1058.44 13.4637C1058.25 13.3399 1058.1 13.1961 1057.99 13.0325C1057.88 12.8644 1057.82 12.6698 1057.82 12.4487C1057.82 12.2408 1057.86 12.0528 1057.95 11.8848C1058.03 11.7167 1058.15 11.573 1058.3 11.4536C1058.45 11.3386 1058.62 11.2501 1058.83 11.1882C1059.04 11.1218 1059.26 11.0887 1059.5 11.0887C1059.78 11.0887 1060.03 11.1307 1060.24 11.2147C1060.46 11.2943 1060.64 11.4049 1060.79 11.5464C1060.94 11.6924 1061.05 11.8671 1061.13 12.0705C1061.21 12.2696 1061.27 12.4907 1061.29 12.7339H1062.87C1062.87 12.2961 1062.78 11.898 1062.6 11.5398C1062.43 11.1771 1062.19 10.8653 1061.89 10.6044C1061.59 10.3479 1061.24 10.1488 1060.83 10.0073C1060.43 9.86136 1059.99 9.78838 1059.52 9.78838C1059.08 9.78838 1058.66 9.8503 1058.26 9.97414C1057.86 10.0936 1057.51 10.2683 1057.21 10.4982C1056.91 10.7326 1056.67 11.0157 1056.49 11.3474C1056.32 11.6747 1056.23 12.044 1056.23 12.4553C1056.23 12.8357 1056.3 13.1784 1056.45 13.4836C1056.61 13.7843 1056.82 14.0541 1057.09 14.293C1057.36 14.5274 1057.69 14.7397 1058.07 14.9298C1058.45 15.1156 1058.87 15.2726 1059.33 15.4009C1059.62 15.4849 1059.89 15.58 1060.13 15.6861C1060.37 15.7879 1060.58 15.9029 1060.76 16.0311C1060.93 16.1682 1061.06 16.323 1061.15 16.4955C1061.24 16.668 1061.29 16.867 1061.29 17.0926Z" fill="#24FF00"/>
<rect x="606.82" y="236.677" width="2.62969" height="10.0805" fill="#24FF00"/>
<rect x="737.428" y="236.677" width="1.75313" height="5.25938" fill="#24FF00"/>
<rect x="867.159" y="236.677" width="1.75313" height="5.25938" fill="#24FF00"/>
<rect x="347.357" y="236.677" width="1.75313" height="5.25938" fill="#24FF00"/>
<rect x="477.089" y="236.677" width="1.75313" height="5.25938" fill="#24FF00"/>
<path d="M343.591 257.879V253.796H342.518L339.777 258.084L339.803 258.725H342.549V260.141H343.591V258.725H344.388V257.879H343.591ZM340.841 257.879L342.427 255.417L342.549 255.19V257.879H340.841ZM345.682 256.994L346.515 257.199C346.57 257.147 346.627 257.099 346.685 257.055C346.746 257.009 346.813 256.968 346.885 256.933C346.955 256.901 347.035 256.875 347.125 256.855C347.218 256.835 347.327 256.824 347.452 256.824C347.641 256.824 347.806 256.856 347.949 256.92C348.091 256.981 348.21 257.069 348.306 257.182C348.402 257.295 348.473 257.429 348.519 257.583C348.569 257.734 348.594 257.901 348.594 258.084C348.594 258.273 348.573 258.449 348.533 258.611C348.492 258.771 348.431 258.908 348.35 259.021C348.262 259.137 348.155 259.227 348.027 259.291C347.899 259.355 347.748 259.387 347.574 259.387C347.277 259.387 347.033 259.304 346.842 259.139C346.653 258.973 346.539 258.735 346.502 258.424H345.486C345.504 258.717 345.572 258.977 345.691 259.204C345.813 259.428 345.969 259.615 346.157 259.766C346.346 259.92 346.563 260.036 346.807 260.115C347.051 260.19 347.306 260.228 347.574 260.228C347.925 260.228 348.23 260.173 348.489 260.063C348.748 259.952 348.961 259.801 349.13 259.609C349.301 259.418 349.427 259.194 349.509 258.938C349.593 258.68 349.635 258.405 349.635 258.114C349.635 257.786 349.592 257.491 349.504 257.23C349.417 256.965 349.292 256.74 349.13 256.554C348.964 256.371 348.762 256.23 348.524 256.132C348.289 256.033 348.021 255.983 347.722 255.983C347.501 255.983 347.305 256.011 347.134 256.066C346.965 256.121 346.829 256.179 346.724 256.241L346.89 254.72H349.435V253.796H346.022L345.682 256.994ZM351.775 254.876C351.775 255.039 351.805 255.19 351.866 255.33C351.927 255.469 352.01 255.591 352.115 255.696C352.219 255.8 352.341 255.883 352.481 255.944C352.62 256.002 352.769 256.031 352.925 256.031C353.079 256.031 353.225 256.002 353.361 255.944C353.498 255.883 353.617 255.8 353.719 255.696C353.823 255.591 353.905 255.469 353.963 255.33C354.024 255.187 354.054 255.036 354.054 254.876C354.054 254.72 354.024 254.57 353.963 254.428C353.902 254.285 353.82 254.16 353.719 254.053C353.617 253.948 353.498 253.865 353.361 253.804C353.225 253.74 353.079 253.708 352.925 253.708C352.769 253.708 352.62 253.74 352.481 253.804C352.341 253.865 352.219 253.948 352.115 254.053C352.01 254.16 351.927 254.285 351.866 254.428C351.805 254.57 351.775 254.72 351.775 254.876ZM352.368 254.876C352.368 254.798 352.382 254.724 352.411 254.654C352.44 254.584 352.481 254.523 352.533 254.471C352.583 254.419 352.641 254.38 352.708 254.353C352.777 254.324 352.85 254.31 352.925 254.31C353.001 254.31 353.071 254.324 353.135 254.353C353.201 254.38 353.26 254.419 353.309 254.471C353.355 254.523 353.392 254.584 353.418 254.654C353.447 254.724 353.462 254.798 353.462 254.876C353.462 254.955 353.447 255.029 353.418 255.099C353.392 255.166 353.355 255.222 353.309 255.269C353.26 255.318 353.201 255.357 353.135 255.386C353.071 255.412 353.001 255.426 352.925 255.426C352.85 255.426 352.777 255.412 352.708 255.386C352.641 255.357 352.583 255.317 352.533 255.264C352.481 255.218 352.44 255.161 352.411 255.094C352.382 255.028 352.368 254.955 352.368 254.876Z" fill="#24FF00"/>
<path d="M866.46 257.879V253.796H865.388L862.647 258.084L862.673 258.725H865.418V260.141H866.46V258.725H867.258V257.879H866.46ZM863.71 257.879L865.296 255.417L865.418 255.19V257.879H863.71ZM868.552 256.994L869.384 257.199C869.439 257.147 869.496 257.099 869.554 257.055C869.615 257.009 869.682 256.968 869.755 256.933C869.824 256.901 869.904 256.875 869.994 256.855C870.087 256.835 870.196 256.824 870.321 256.824C870.51 256.824 870.676 256.856 870.818 256.92C870.96 256.981 871.08 257.069 871.175 257.182C871.271 257.295 871.342 257.429 871.389 257.583C871.438 257.734 871.463 257.901 871.463 258.084C871.463 258.273 871.443 258.449 871.402 258.611C871.361 258.771 871.3 258.908 871.219 259.021C871.132 259.137 871.024 259.227 870.896 259.291C870.769 259.355 870.618 259.387 870.443 259.387C870.147 259.387 869.903 259.304 869.711 259.139C869.522 258.973 869.409 258.735 869.371 258.424H868.356C868.373 258.717 868.441 258.977 868.561 259.204C868.683 259.428 868.838 259.615 869.027 259.766C869.216 259.92 869.432 260.036 869.676 260.115C869.92 260.19 870.176 260.228 870.443 260.228C870.795 260.228 871.1 260.173 871.358 260.063C871.617 259.952 871.831 259.801 871.999 259.609C872.17 259.418 872.297 259.194 872.378 258.938C872.462 258.68 872.505 258.405 872.505 258.114C872.505 257.786 872.461 257.491 872.374 257.23C872.287 256.965 872.162 256.74 871.999 256.554C871.833 256.371 871.632 256.23 871.393 256.132C871.158 256.033 870.891 255.983 870.591 255.983C870.371 255.983 870.174 256.011 870.003 256.066C869.835 256.121 869.698 256.179 869.593 256.241L869.759 254.72H872.304V253.796H868.892L868.552 256.994ZM874.644 254.876C874.644 255.039 874.675 255.19 874.736 255.33C874.797 255.469 874.88 255.591 874.984 255.696C875.089 255.8 875.211 255.883 875.35 255.944C875.49 256.002 875.638 256.031 875.795 256.031C875.949 256.031 876.094 256.002 876.231 255.944C876.367 255.883 876.486 255.8 876.588 255.696C876.693 255.591 876.774 255.469 876.832 255.33C876.893 255.187 876.924 255.036 876.924 254.876C876.924 254.72 876.893 254.57 876.832 254.428C876.771 254.285 876.69 254.16 876.588 254.053C876.486 253.948 876.367 253.865 876.231 253.804C876.094 253.74 875.949 253.708 875.795 253.708C875.638 253.708 875.49 253.74 875.35 253.804C875.211 253.865 875.089 253.948 874.984 254.053C874.88 254.16 874.797 254.285 874.736 254.428C874.675 254.57 874.644 254.72 874.644 254.876ZM875.237 254.876C875.237 254.798 875.252 254.724 875.281 254.654C875.31 254.584 875.35 254.523 875.403 254.471C875.452 254.419 875.51 254.38 875.577 254.353C875.647 254.324 875.719 254.31 875.795 254.31C875.87 254.31 875.94 254.324 876.004 254.353C876.071 254.38 876.129 254.419 876.178 254.471C876.225 254.523 876.261 254.584 876.287 254.654C876.316 254.724 876.331 254.798 876.331 254.876C876.331 254.955 876.316 255.029 876.287 255.099C876.261 255.166 876.225 255.222 876.178 255.269C876.129 255.318 876.071 255.357 876.004 255.386C875.94 255.412 875.87 255.426 875.795 255.426C875.719 255.426 875.647 255.412 875.577 255.386C875.51 255.357 875.452 255.317 875.403 255.264C875.35 255.218 875.31 255.161 875.281 255.094C875.252 255.028 875.237 254.955 875.237 254.876Z" fill="#24FF00"/>
<rect opacity="0.2" x="98.8521" y="127.546" width="1.75313" height="47.3344" fill="#24FF00"/>
<path d="M126.297 157L126.991 158.405H127.63V158.373L126.857 156.858C126.956 156.814 127.046 156.761 127.128 156.699C127.209 156.638 127.278 156.567 127.336 156.485C127.395 156.404 127.439 156.313 127.471 156.212C127.504 156.111 127.521 155.998 127.521 155.874C127.521 155.693 127.489 155.536 127.426 155.401C127.363 155.265 127.275 155.152 127.162 155.061C127.048 154.971 126.912 154.903 126.755 154.857C126.597 154.81 126.425 154.786 126.237 154.785H125.089V158.405H125.685V157H126.297ZM125.685 156.513V155.272H126.237C126.34 155.274 126.433 155.288 126.516 155.314C126.599 155.339 126.669 155.376 126.727 155.426C126.79 155.479 126.838 155.545 126.869 155.625C126.902 155.703 126.919 155.794 126.919 155.899C126.919 155.991 126.904 156.074 126.874 156.147C126.844 156.22 126.803 156.282 126.75 156.331C126.69 156.389 126.617 156.434 126.531 156.466C126.446 156.495 126.351 156.511 126.245 156.513H125.685ZM130.268 156.781V156.299H128.771V155.279H130.507V154.785H128.172V158.405H130.519V157.913H128.771V156.781H130.268ZM133.086 157.473C133.086 157.552 133.068 157.623 133.033 157.684C133 157.745 132.956 157.797 132.899 157.838C132.841 157.881 132.772 157.914 132.693 157.935C132.615 157.957 132.53 157.968 132.439 157.968C132.331 157.968 132.232 157.954 132.141 157.928C132.051 157.901 131.973 157.861 131.907 157.806C131.839 157.753 131.785 157.686 131.745 157.604C131.707 157.522 131.684 157.425 131.676 157.314H131.079C131.081 157.488 131.115 157.642 131.183 157.776C131.253 157.91 131.347 158.027 131.464 158.127C131.592 158.233 131.742 158.314 131.914 158.37C132.087 158.425 132.262 158.452 132.439 158.452C132.607 158.452 132.766 158.432 132.917 158.39C133.067 158.347 133.2 158.283 133.314 158.199C133.427 158.118 133.517 158.016 133.583 157.893C133.651 157.77 133.685 157.628 133.685 157.468C133.685 157.294 133.646 157.14 133.568 157.008C133.492 156.873 133.39 156.758 133.262 156.662C133.159 156.586 133.047 156.521 132.924 156.468C132.803 156.413 132.679 156.368 132.551 156.331C132.45 156.301 132.353 156.269 132.26 156.234C132.169 156.199 132.088 156.159 132.016 156.112C131.947 156.066 131.891 156.012 131.85 155.951C131.808 155.888 131.787 155.815 131.785 155.732C131.785 155.654 131.801 155.584 131.832 155.521C131.864 155.458 131.908 155.404 131.964 155.359C132.021 155.316 132.087 155.283 132.163 155.26C132.241 155.235 132.326 155.222 132.417 155.222C132.521 155.222 132.613 155.238 132.693 155.269C132.774 155.299 132.843 155.341 132.899 155.394C132.954 155.449 132.996 155.514 133.026 155.59C133.058 155.665 133.077 155.748 133.086 155.839H133.678C133.678 155.675 133.644 155.526 133.578 155.391C133.513 155.255 133.425 155.138 133.312 155.041C133.199 154.945 133.067 154.87 132.914 154.817C132.763 154.762 132.6 154.735 132.424 154.735C132.258 154.735 132.1 154.758 131.949 154.804C131.8 154.849 131.669 154.915 131.556 155.001C131.444 155.089 131.354 155.195 131.288 155.319C131.222 155.442 131.188 155.58 131.188 155.734C131.188 155.877 131.217 156.006 131.273 156.12C131.331 156.233 131.41 156.334 131.512 156.423C131.613 156.511 131.735 156.591 131.877 156.662C132.021 156.732 132.179 156.79 132.35 156.839C132.461 156.87 132.561 156.906 132.651 156.945C132.742 156.984 132.82 157.027 132.887 157.075C132.95 157.126 132.999 157.184 133.033 157.249C133.068 157.314 133.086 157.388 133.086 157.473ZM136.385 156.781V156.299H134.889V155.279H136.624V154.785H134.289V158.405H136.637V157.913H134.889V156.781H136.385ZM139.884 155.279V154.785H137.064V155.279H138.173V158.405H138.768V155.279H139.884ZM144.141 154.785H143.4V158.405H143.96V157.177L143.928 155.62L144.432 157.289H144.743L145.3 155.56L145.265 157.177V158.405H145.827V154.785H145.084L144.589 156.334L144.141 154.785ZM148.62 156.781V156.299H147.123V155.279H148.859V154.785H146.524V158.405H148.871V157.913H147.123V156.781H148.62ZM150.259 154.785H149.518V158.405H150.077V157.177L150.045 155.62L150.55 157.289H150.86L151.417 155.56L151.383 157.177V158.405H151.945V154.785H151.201L150.706 156.334L150.259 154.785ZM155.757 154.785V155.279H156.513V157.913H155.757V158.405H157.89V157.913H157.117V155.279H157.89V154.785H155.757ZM161.063 158.405V154.785H160.461L160.456 157.266L159.288 154.785H158.681V158.405H159.285L159.288 155.914L160.464 158.405H161.063Z" fill="#24FF00"/>
<path d="M131.001 149.119L130.99 146.005H128.194V147.051H129.67L129.665 148.678C129.605 148.756 129.525 148.825 129.424 148.885C129.323 148.94 129.213 148.987 129.094 149.024C128.971 149.062 128.843 149.09 128.708 149.108C128.574 149.123 128.442 149.131 128.311 149.131C128.091 149.127 127.894 149.09 127.719 149.019C127.547 148.948 127.396 148.847 127.266 148.717C127.161 148.616 127.07 148.501 126.992 148.37C126.917 148.24 126.852 148.1 126.796 147.951C126.725 147.753 126.671 147.539 126.634 147.308C126.6 147.077 126.584 146.833 126.584 146.575V145.524C126.584 145.304 126.597 145.09 126.623 144.881C126.649 144.672 126.69 144.477 126.746 144.294C126.809 144.085 126.889 143.897 126.986 143.729C127.087 143.558 127.204 143.414 127.339 143.299C127.454 143.198 127.585 143.12 127.73 143.064C127.875 143.004 128.034 142.975 128.205 142.975C128.44 142.975 128.643 143.008 128.815 143.075C128.99 143.142 129.137 143.239 129.256 143.366C129.368 143.485 129.458 143.632 129.525 143.808C129.592 143.979 129.642 144.171 129.676 144.384H130.995C130.958 143.996 130.87 143.647 130.732 143.338C130.595 143.025 130.406 142.758 130.168 142.538C129.933 142.322 129.65 142.156 129.318 142.041C128.986 141.925 128.606 141.867 128.177 141.867C127.86 141.867 127.566 141.912 127.294 142.002C127.025 142.091 126.779 142.218 126.556 142.382C126.351 142.538 126.168 142.723 126.008 142.935C125.847 143.148 125.71 143.383 125.594 143.64C125.475 143.912 125.383 144.208 125.32 144.529C125.26 144.849 125.229 145.185 125.225 145.535V146.575C125.229 146.937 125.264 147.282 125.331 147.61C125.398 147.938 125.497 148.238 125.628 148.51C125.743 148.771 125.887 149.008 126.058 149.22C126.233 149.433 126.431 149.613 126.651 149.762C126.871 149.912 127.117 150.027 127.389 150.109C127.661 150.191 127.954 150.232 128.267 150.232C128.606 150.232 128.925 150.197 129.223 150.126C129.521 150.059 129.797 149.964 130.05 149.841C130.252 149.744 130.432 149.634 130.593 149.511C130.753 149.384 130.889 149.254 131.001 149.119ZM138.197 143.092V141.979H131.856V143.092H134.35V150.12H135.686V143.092H138.197ZM142.033 146.961L143.593 150.12H145.03V150.048L143.291 146.642C143.514 146.542 143.717 146.423 143.9 146.285C144.083 146.147 144.239 145.986 144.37 145.804C144.5 145.621 144.601 145.416 144.672 145.189C144.746 144.961 144.784 144.708 144.784 144.428C144.784 144.022 144.713 143.668 144.571 143.366C144.429 143.06 144.232 142.805 143.978 142.6C143.721 142.399 143.416 142.246 143.061 142.141C142.707 142.037 142.32 141.983 141.898 141.979H139.315V150.12H140.657V146.961H142.033ZM140.657 145.865V143.075H141.898C142.13 143.079 142.338 143.111 142.525 143.17C142.711 143.226 142.869 143.31 143 143.422C143.142 143.541 143.248 143.69 143.319 143.869C143.393 144.044 143.43 144.249 143.43 144.484C143.43 144.693 143.397 144.879 143.33 145.043C143.263 145.207 143.169 145.345 143.05 145.457C142.916 145.588 142.752 145.688 142.558 145.759C142.368 145.826 142.154 145.862 141.915 145.865H140.657ZM151.275 144.126C151.275 143.765 151.212 143.444 151.085 143.165C150.958 142.881 150.785 142.645 150.565 142.455C150.338 142.261 150.071 142.115 149.765 142.018C149.463 141.918 149.134 141.867 148.776 141.867C148.414 141.867 148.081 141.918 147.775 142.018C147.473 142.115 147.214 142.261 146.998 142.455C146.778 142.648 146.604 142.885 146.478 143.165C146.355 143.444 146.293 143.765 146.293 144.126C146.293 144.328 146.321 144.52 146.377 144.702C146.433 144.885 146.511 145.053 146.612 145.205C146.709 145.355 146.826 145.491 146.964 145.614C147.106 145.737 147.262 145.841 147.434 145.927C147.233 146.02 147.05 146.134 146.886 146.268C146.726 146.398 146.588 146.546 146.472 146.71C146.357 146.881 146.267 147.067 146.204 147.269C146.144 147.47 146.114 147.682 146.114 147.906C146.114 148.286 146.181 148.622 146.316 148.913C146.453 149.2 146.644 149.44 146.886 149.634C147.124 149.831 147.406 149.98 147.73 150.081C148.058 150.182 148.412 150.232 148.793 150.232C149.165 150.232 149.512 150.182 149.833 150.081C150.157 149.98 150.44 149.831 150.682 149.634C150.921 149.44 151.109 149.198 151.247 148.907C151.385 148.616 151.454 148.283 151.454 147.906C151.454 147.641 151.411 147.395 151.325 147.168C151.24 146.941 151.12 146.737 150.968 146.559C150.859 146.424 150.733 146.307 150.587 146.206C150.446 146.102 150.291 146.011 150.123 145.932C150.265 145.862 150.394 145.78 150.509 145.686C150.625 145.593 150.727 145.492 150.817 145.384C150.962 145.217 151.074 145.027 151.152 144.814C151.234 144.602 151.275 144.372 151.275 144.126ZM150.118 147.833C150.118 148.042 150.084 148.229 150.017 148.393C149.95 148.553 149.86 148.691 149.749 148.806C149.629 148.918 149.488 149.004 149.324 149.064C149.163 149.123 148.986 149.153 148.793 149.153C148.588 149.153 148.403 149.125 148.239 149.069C148.079 149.009 147.941 148.926 147.825 148.817C147.706 148.706 147.615 148.568 147.551 148.404C147.488 148.236 147.456 148.048 147.456 147.839C147.456 147.634 147.486 147.449 147.546 147.285C147.609 147.118 147.698 146.972 147.814 146.849C147.93 146.734 148.068 146.644 148.228 146.581C148.392 146.518 148.576 146.486 148.781 146.486C148.979 146.486 149.16 146.518 149.324 146.581C149.488 146.644 149.629 146.734 149.749 146.849C149.864 146.972 149.954 147.118 150.017 147.285C150.084 147.449 150.118 147.632 150.118 147.833ZM149.944 144.177C149.944 144.359 149.916 144.527 149.86 144.68C149.805 144.829 149.726 144.956 149.626 145.06C149.525 145.168 149.404 145.252 149.262 145.312C149.121 145.371 148.962 145.401 148.787 145.401C148.612 145.401 148.453 145.371 148.312 145.312C148.17 145.252 148.049 145.168 147.948 145.06C147.844 144.956 147.766 144.829 147.713 144.68C147.661 144.527 147.635 144.359 147.635 144.177C147.635 143.99 147.661 143.821 147.713 143.668C147.766 143.515 147.84 143.386 147.937 143.282C148.038 143.178 148.157 143.098 148.295 143.042C148.437 142.982 148.595 142.952 148.77 142.952C148.949 142.952 149.109 142.982 149.251 143.042C149.393 143.101 149.516 143.183 149.62 143.288C149.721 143.399 149.799 143.53 149.855 143.679C149.915 143.828 149.944 143.994 149.944 144.177Z" fill="#24FF00"/>
<rect x="68.6109" y="148.145" width="1.75313" height="1.75313" rx="0.657422" fill="#24FF00"/>
<rect x="72.5555" y="148.145" width="1.75313" height="1.75313" rx="0.657422" fill="#24FF00"/>
<rect x="68.6109" y="152.09" width="1.75313" height="1.75313" rx="0.657422" fill="#24FF00"/>
<rect x="72.5555" y="152.09" width="1.75313" height="1.75313" rx="0.657422" fill="#24FF00"/>
<rect x="202.725" y="158.226" width="14.9016" height="14.9016" rx="1.31484" transform="rotate(-90 202.725 158.226)" fill="#24FF00"/>
<path d="M206.669 150.775L213.682 150.775M213.682 150.775L211.769 148.584M213.682 150.775L211.769 152.967" stroke="black" stroke-width="0.876563" stroke-linecap="round" stroke-linejoin="round"/>
<rect x="218.941" y="369.916" width="1.75313" height="1.75313" fill="#24FF00"/>
<rect x="218.941" y="376.052" width="1.75313" height="1.75313" fill="#24FF00"/>
<rect x="218.941" y="382.188" width="1.75313" height="1.75313" fill="#24FF00"/>
<rect x="212.805" y="369.916" width="1.75313" height="1.75313" fill="#24FF00"/>
<rect x="212.805" y="376.052" width="1.75313" height="1.75313" fill="#24FF00"/>
<rect x="212.805" y="382.188" width="1.75313" height="1.75313" fill="#24FF00"/>
<rect x="206.669" y="369.916" width="1.75313" height="1.75313" fill="#24FF00"/>
<rect x="206.669" y="376.052" width="1.75313" height="1.75313" fill="#24FF00"/>
<path d="M640.583 436.089V436.399H640.818C640.887 436.399 640.948 436.407 641.003 436.423C641.059 436.439 641.107 436.462 641.146 436.494C641.186 436.527 641.216 436.569 641.237 436.618C641.258 436.667 641.268 436.727 641.268 436.796C641.268 436.858 641.259 436.913 641.24 436.961C641.223 437.008 641.197 437.048 641.163 437.08C641.128 437.114 641.084 437.14 641.033 437.157C640.982 437.174 640.925 437.182 640.861 437.182C640.802 437.182 640.747 437.173 640.698 437.155C640.65 437.138 640.608 437.113 640.573 437.081C640.536 437.05 640.508 437.013 640.489 436.969C640.47 436.924 640.461 436.875 640.461 436.822H640.067C640.067 436.935 640.088 437.033 640.131 437.118C640.175 437.201 640.233 437.271 640.306 437.329C640.378 437.386 640.462 437.429 640.558 437.457C640.654 437.486 640.753 437.5 640.856 437.5C640.971 437.5 641.077 437.485 641.174 437.454C641.273 437.422 641.359 437.376 641.432 437.315C641.503 437.256 641.559 437.183 641.6 437.096C641.642 437.008 641.662 436.908 641.662 436.796C641.662 436.736 641.655 436.677 641.641 436.621C641.627 436.564 641.604 436.511 641.572 436.461C641.54 436.413 641.499 436.37 641.448 436.331C641.399 436.292 641.338 436.26 641.267 436.236C641.327 436.208 641.38 436.175 641.425 436.135C641.47 436.095 641.507 436.053 641.537 436.008C641.567 435.962 641.589 435.914 641.603 435.865C641.619 435.815 641.626 435.766 641.626 435.716C641.626 435.604 641.608 435.506 641.57 435.421C641.533 435.336 641.48 435.265 641.412 435.207C641.345 435.15 641.263 435.107 641.168 435.078C641.073 435.049 640.969 435.034 640.856 435.034C640.745 435.034 640.643 435.05 640.55 435.083C640.457 435.116 640.377 435.162 640.309 435.22C640.241 435.279 640.187 435.349 640.149 435.429C640.111 435.51 640.091 435.597 640.091 435.693H640.485C640.485 435.641 640.495 435.595 640.513 435.553C640.533 435.511 640.56 435.475 640.594 435.446C640.627 435.416 640.666 435.394 640.711 435.378C640.757 435.362 640.807 435.354 640.861 435.354C640.922 435.354 640.975 435.362 641.021 435.378C641.068 435.395 641.107 435.418 641.138 435.447C641.169 435.479 641.192 435.518 641.207 435.563C641.224 435.608 641.232 435.659 641.232 435.716C641.232 435.769 641.223 435.818 641.206 435.865C641.189 435.91 641.165 435.948 641.133 435.978C641.099 436.014 641.056 436.041 641.003 436.061C640.95 436.079 640.889 436.089 640.818 436.089H640.583ZM644.071 436.552V435.983C644.071 435.829 644.053 435.694 644.016 435.576C643.98 435.457 643.929 435.357 643.863 435.276C643.795 435.196 643.712 435.135 643.616 435.095C643.52 435.053 643.411 435.032 643.289 435.032C643.168 435.032 643.06 435.053 642.963 435.095C642.867 435.135 642.786 435.196 642.719 435.276C642.652 435.357 642.6 435.457 642.564 435.576C642.529 435.694 642.511 435.829 642.511 435.983V436.552C642.511 436.706 642.529 436.842 642.564 436.961C642.6 437.079 642.652 437.177 642.721 437.256C642.788 437.337 642.869 437.399 642.966 437.441C643.063 437.481 643.172 437.502 643.293 437.502C643.415 437.502 643.523 437.481 643.619 437.441C643.716 437.399 643.797 437.337 643.863 437.256C643.93 437.177 643.981 437.079 644.016 436.961C644.053 436.842 644.071 436.706 644.071 436.552ZM642.907 436.412C642.907 436.38 642.907 436.353 642.907 436.331C642.907 436.309 642.907 436.277 642.907 436.236V435.912C642.907 435.813 642.916 435.728 642.933 435.655C642.951 435.582 642.978 435.522 643.014 435.475C643.045 435.435 643.083 435.404 643.129 435.383C643.176 435.362 643.229 435.352 643.289 435.352C643.345 435.352 643.395 435.361 643.439 435.378C643.484 435.396 643.522 435.422 643.553 435.457C643.588 435.497 643.615 435.548 643.634 435.611C643.654 435.673 643.666 435.748 643.67 435.833L642.907 436.412ZM643.673 436.618C643.673 436.719 643.664 436.807 643.645 436.882C643.628 436.957 643.601 437.017 643.565 437.063C643.533 437.103 643.494 437.133 643.449 437.154C643.404 437.174 643.352 437.183 643.293 437.183C643.232 437.183 643.179 437.173 643.133 437.152C643.088 437.131 643.05 437.1 643.019 437.058C642.988 437.02 642.963 436.971 642.945 436.913C642.927 436.855 642.916 436.788 642.91 436.712L643.673 436.137C643.673 436.168 643.673 436.199 643.673 436.229C643.673 436.259 643.673 436.287 643.673 436.315V436.618ZM644.956 436.277L645.271 436.354C645.292 436.334 645.313 436.316 645.335 436.3C645.358 436.282 645.383 436.267 645.411 436.254C645.437 436.242 645.467 436.232 645.501 436.224C645.537 436.216 645.578 436.212 645.625 436.212C645.697 436.212 645.759 436.225 645.813 436.249C645.867 436.272 645.912 436.305 645.948 436.348C645.985 436.39 646.011 436.441 646.029 436.499C646.048 436.556 646.057 436.62 646.057 436.689C646.057 436.76 646.049 436.827 646.034 436.888C646.019 436.949 645.995 437 645.965 437.043C645.932 437.087 645.891 437.121 645.843 437.146C645.794 437.17 645.737 437.182 645.671 437.182C645.559 437.182 645.467 437.151 645.394 437.088C645.323 437.025 645.28 436.935 645.266 436.817H644.882C644.888 436.928 644.914 437.027 644.959 437.113C645.005 437.197 645.064 437.268 645.135 437.325C645.207 437.384 645.289 437.427 645.381 437.457C645.473 437.486 645.57 437.5 645.671 437.5C645.804 437.5 645.92 437.479 646.017 437.437C646.115 437.396 646.196 437.338 646.26 437.266C646.325 437.193 646.372 437.109 646.403 437.012C646.435 436.914 646.451 436.81 646.451 436.7C646.451 436.576 646.435 436.465 646.402 436.366C646.369 436.266 646.321 436.181 646.26 436.11C646.197 436.041 646.121 435.988 646.031 435.95C645.942 435.913 645.841 435.894 645.727 435.894C645.644 435.894 645.57 435.905 645.505 435.926C645.441 435.946 645.389 435.968 645.35 435.992L645.412 435.416H646.375V435.067H645.084L644.956 436.277ZM648.754 436.572V436.252H647.427V436.572H648.754ZM650.804 435.055H650.758C650.571 435.055 650.405 435.084 650.26 435.142C650.115 435.201 649.993 435.284 649.894 435.393C649.778 435.519 649.694 435.671 649.644 435.846C649.594 436.021 649.57 436.205 649.57 436.399V436.562C649.57 436.691 649.588 436.813 649.626 436.93C649.663 437.045 649.718 437.146 649.791 437.231C649.859 437.314 649.942 437.379 650.041 437.427C650.14 437.476 650.253 437.5 650.379 437.5C650.502 437.5 650.612 437.479 650.707 437.437C650.804 437.395 650.886 437.336 650.953 437.261C651.019 437.187 651.069 437.101 651.103 437.002C651.138 436.902 651.156 436.795 651.156 436.681C651.156 436.576 651.142 436.476 651.114 436.379C651.088 436.282 651.046 436.196 650.989 436.122C650.933 436.047 650.862 435.988 650.775 435.944C650.689 435.9 650.588 435.878 650.471 435.878C650.416 435.878 650.364 435.884 650.315 435.898C650.265 435.91 650.22 435.926 650.18 435.947C650.137 435.969 650.098 435.994 650.063 436.023C650.027 436.05 649.997 436.079 649.97 436.109C649.979 436.006 650.002 435.911 650.038 435.822C650.075 435.733 650.127 435.656 650.194 435.593C650.26 435.529 650.341 435.479 650.437 435.444C650.534 435.408 650.647 435.39 650.778 435.39H650.804V435.055ZM650.374 436.198C650.438 436.198 650.494 436.211 650.542 436.237C650.592 436.262 650.633 436.298 650.666 436.343C650.699 436.388 650.724 436.44 650.74 436.501C650.758 436.56 650.767 436.623 650.767 436.691C650.767 436.761 650.758 436.826 650.74 436.887C650.723 436.946 650.697 436.998 650.663 437.042C650.629 437.085 650.587 437.119 650.539 437.144C650.491 437.168 650.436 437.18 650.374 437.18C650.318 437.18 650.265 437.168 650.216 437.142C650.166 437.117 650.123 437.08 650.086 437.032C650.048 436.983 650.019 436.923 649.997 436.85C649.976 436.778 649.965 436.694 649.965 436.598V436.476C649.983 436.436 650.005 436.399 650.031 436.366C650.058 436.333 650.087 436.304 650.12 436.278C650.157 436.253 650.196 436.233 650.239 436.219C650.282 436.205 650.327 436.198 650.374 436.198ZM652.052 436.277L652.367 436.354C652.388 436.334 652.409 436.316 652.431 436.3C652.454 436.282 652.48 436.267 652.507 436.254C652.534 436.242 652.564 436.232 652.598 436.224C652.633 436.216 652.674 436.212 652.721 436.212C652.793 436.212 652.856 436.225 652.909 436.249C652.963 436.272 653.008 436.305 653.045 436.348C653.081 436.39 653.108 436.441 653.125 436.499C653.144 436.556 653.153 436.62 653.153 436.689C653.153 436.76 653.146 436.827 653.13 436.888C653.115 436.949 653.092 437 653.061 437.043C653.028 437.087 652.987 437.121 652.939 437.146C652.891 437.17 652.834 437.182 652.768 437.182C652.656 437.182 652.563 437.151 652.491 437.088C652.419 437.025 652.376 436.935 652.362 436.817H651.978C651.985 436.928 652.01 437.027 652.055 437.113C652.102 437.197 652.16 437.268 652.232 437.325C652.303 437.384 652.385 437.427 652.477 437.457C652.57 437.486 652.667 437.5 652.768 437.5C652.901 437.5 653.016 437.479 653.114 437.437C653.212 437.396 653.292 437.338 653.356 437.266C653.421 437.193 653.469 437.109 653.5 437.012C653.531 436.914 653.547 436.81 653.547 436.7C653.547 436.576 653.531 436.465 653.498 436.366C653.465 436.266 653.418 436.181 653.356 436.11C653.294 436.041 653.217 435.988 653.127 435.95C653.038 435.913 652.937 435.894 652.824 435.894C652.74 435.894 652.666 435.905 652.601 435.926C652.537 435.946 652.486 435.968 652.446 435.992L652.509 435.416H653.472V435.067H652.181L652.052 436.277ZM657.487 436.214L656.983 435.067H656.542L657.287 436.598L657.289 437.467H657.677L657.68 436.61L658.432 435.067H657.99L657.487 436.214ZM660.589 437.779V437.467H659.083V437.779H660.589ZM662.017 437.467H662.403L663.141 435.067H662.709L662.249 436.727L662.208 436.872L662.168 436.728L661.712 435.067H661.278L662.017 437.467ZM665.221 436.39V436.071H664.229V435.395H665.38V435.067H663.832V437.467H665.388V437.141H664.229V436.39H665.221ZM667.363 435.055H667.316C667.13 435.055 666.964 435.084 666.819 435.142C666.673 435.201 666.551 435.284 666.453 435.393C666.336 435.519 666.253 435.671 666.202 435.846C666.152 436.021 666.128 436.205 666.128 436.399V436.562C666.128 436.691 666.146 436.813 666.184 436.93C666.221 437.045 666.276 437.146 666.349 437.231C666.417 437.314 666.5 437.379 666.599 437.427C666.698 437.476 666.811 437.5 666.937 437.5C667.06 437.5 667.17 437.479 667.265 437.437C667.362 437.395 667.444 437.336 667.511 437.261C667.577 437.187 667.627 437.101 667.661 437.002C667.696 436.902 667.714 436.795 667.714 436.681C667.714 436.576 667.7 436.476 667.673 436.379C667.646 436.282 667.604 436.196 667.547 436.122C667.491 436.047 667.42 435.988 667.333 435.944C667.247 435.9 667.146 435.878 667.03 435.878C666.975 435.878 666.922 435.884 666.873 435.898C666.823 435.91 666.778 435.926 666.738 435.947C666.695 435.969 666.656 435.994 666.621 436.023C666.586 436.05 666.555 436.079 666.528 436.109C666.537 436.006 666.56 435.911 666.596 435.822C666.633 435.733 666.686 435.656 666.753 435.593C666.819 435.529 666.899 435.479 666.995 435.444C667.092 435.408 667.205 435.39 667.336 435.39H667.363V435.055ZM666.932 436.198C666.996 436.198 667.052 436.211 667.1 436.237C667.15 436.262 667.191 436.298 667.224 436.343C667.257 436.388 667.282 436.44 667.298 436.501C667.316 436.56 667.325 436.623 667.325 436.691C667.325 436.761 667.316 436.826 667.298 436.887C667.281 436.946 667.255 436.998 667.221 437.042C667.187 437.085 667.146 437.119 667.097 437.144C667.049 437.168 666.994 437.18 666.932 437.18C666.876 437.18 666.823 437.168 666.774 437.142C666.725 437.117 666.681 437.08 666.644 437.032C666.606 436.983 666.577 436.923 666.555 436.85C666.534 436.778 666.523 436.694 666.523 436.598V436.476C666.541 436.436 666.563 436.399 666.589 436.366C666.616 436.333 666.645 436.304 666.678 436.278C666.715 436.253 666.754 436.233 666.797 436.219C666.84 436.205 666.885 436.198 666.932 436.198ZM641.567 440.39V440.071H640.574V439.395H641.725V439.067H640.177V441.467H641.733V441.141H640.574V440.39H641.567ZM642.953 441.141V439.067H642.556V441.467H644.099V441.141H642.953ZM646.397 441.779V441.467H644.89V441.779H646.397ZM648.329 441.467V439.067H648.304L647.316 439.433V439.78L647.931 439.555V441.467H648.329ZM650.044 440.089V440.399H650.28C650.348 440.399 650.41 440.407 650.465 440.423C650.521 440.439 650.569 440.462 650.608 440.494C650.648 440.527 650.678 440.569 650.699 440.618C650.72 440.667 650.73 440.727 650.73 440.796C650.73 440.858 650.721 440.913 650.702 440.961C650.685 441.008 650.659 441.048 650.625 441.08C650.59 441.114 650.546 441.14 650.494 441.157C650.444 441.174 650.387 441.182 650.323 441.182C650.264 441.182 650.209 441.173 650.16 441.155C650.111 441.138 650.07 441.113 650.035 441.081C649.998 441.05 649.97 441.013 649.95 440.969C649.932 440.924 649.922 440.875 649.922 440.822H649.528C649.528 440.935 649.55 441.033 649.593 441.118C649.637 441.201 649.695 441.271 649.767 441.329C649.84 441.386 649.924 441.429 650.02 441.457C650.115 441.486 650.215 441.5 650.318 441.5C650.432 441.5 650.538 441.485 650.636 441.454C650.735 441.422 650.821 441.376 650.893 441.315C650.965 441.256 651.021 441.183 651.062 441.096C651.103 441.008 651.124 440.908 651.124 440.796C651.124 440.736 651.117 440.677 651.103 440.621C651.089 440.564 651.065 440.511 651.034 440.461C651.002 440.413 650.961 440.37 650.91 440.331C650.86 440.292 650.8 440.26 650.729 440.236C650.789 440.208 650.842 440.175 650.887 440.135C650.932 440.095 650.969 440.053 650.999 440.008C651.029 439.962 651.051 439.914 651.065 439.865C651.08 439.815 651.088 439.766 651.088 439.716C651.088 439.604 651.069 439.506 651.032 439.421C650.995 439.336 650.942 439.265 650.874 439.207C650.807 439.15 650.725 439.107 650.63 439.078C650.535 439.049 650.431 439.034 650.318 439.034C650.207 439.034 650.105 439.05 650.011 439.083C649.919 439.116 649.839 439.162 649.771 439.22C649.703 439.279 649.649 439.349 649.611 439.429C649.572 439.51 649.553 439.597 649.553 439.693H649.947C649.947 439.641 649.956 439.595 649.975 439.553C649.995 439.511 650.022 439.475 650.056 439.446C650.089 439.416 650.128 439.394 650.173 439.378C650.219 439.362 650.269 439.354 650.323 439.354C650.383 439.354 650.437 439.362 650.483 439.378C650.53 439.395 650.569 439.418 650.6 439.447C650.631 439.479 650.654 439.518 650.669 439.563C650.686 439.608 650.694 439.659 650.694 439.716C650.694 439.769 650.685 439.818 650.668 439.865C650.651 439.91 650.627 439.948 650.595 439.978C650.561 440.014 650.518 440.041 650.465 440.061C650.412 440.079 650.351 440.089 650.28 440.089H650.044ZM653.521 441.467V441.149H652.403L652.937 440.578C653.008 440.504 653.073 440.431 653.132 440.361C653.192 440.29 653.245 440.221 653.289 440.151C653.331 440.082 653.365 440.012 653.389 439.942C653.414 439.871 653.427 439.797 653.427 439.721C653.427 439.62 653.411 439.528 653.378 439.444C653.345 439.36 653.297 439.287 653.234 439.227C653.17 439.166 653.092 439.119 652.998 439.085C652.906 439.051 652.801 439.034 652.684 439.034C652.558 439.034 652.444 439.054 652.342 439.095C652.241 439.135 652.155 439.19 652.085 439.26C652.014 439.329 651.959 439.41 651.92 439.504C651.882 439.596 651.863 439.694 651.863 439.799H652.258C652.258 439.729 652.267 439.668 652.285 439.614C652.302 439.559 652.329 439.512 652.364 439.474C652.398 439.438 652.441 439.41 652.492 439.39C652.544 439.37 652.605 439.36 652.675 439.36C652.73 439.36 652.78 439.369 652.824 439.388C652.869 439.407 652.907 439.433 652.939 439.466C652.971 439.499 652.995 439.538 653.012 439.584C653.028 439.63 653.036 439.682 653.036 439.738C653.036 439.779 653.03 439.821 653.018 439.863C653.007 439.904 652.989 439.948 652.962 439.995C652.935 440.042 652.899 440.094 652.855 440.151C652.811 440.207 652.757 440.271 652.692 440.343L651.91 441.193V441.467H653.521ZM655.886 441.467V441.149H654.769L655.303 440.578C655.373 440.504 655.438 440.431 655.497 440.361C655.558 440.29 655.61 440.221 655.654 440.151C655.697 440.082 655.73 440.012 655.755 439.942C655.78 439.871 655.793 439.797 655.793 439.721C655.793 439.62 655.776 439.528 655.743 439.444C655.71 439.36 655.662 439.287 655.6 439.227C655.536 439.166 655.457 439.119 655.364 439.085C655.272 439.051 655.167 439.034 655.049 439.034C654.924 439.034 654.81 439.054 654.708 439.095C654.607 439.135 654.521 439.19 654.451 439.26C654.379 439.329 654.324 439.41 654.286 439.504C654.247 439.596 654.228 439.694 654.228 439.799H654.624C654.624 439.729 654.632 439.668 654.65 439.614C654.668 439.559 654.694 439.512 654.729 439.474C654.763 439.438 654.806 439.41 654.858 439.39C654.909 439.37 654.97 439.36 655.041 439.36C655.096 439.36 655.145 439.369 655.189 439.388C655.234 439.407 655.273 439.433 655.305 439.466C655.336 439.499 655.361 439.538 655.377 439.584C655.394 439.63 655.402 439.682 655.402 439.738C655.402 439.779 655.396 439.821 655.384 439.863C655.373 439.904 655.354 439.948 655.328 439.995C655.3 440.042 655.264 440.094 655.22 440.151C655.176 440.207 655.122 440.271 655.057 440.343L654.276 441.193V441.467H655.886Z" fill="#24FF00"/>
<path d="M642.533 411.771C642.533 411.864 642.513 411.946 642.473 412.017C642.434 412.088 642.382 412.148 642.317 412.196C642.249 412.246 642.169 412.284 642.077 412.309C641.986 412.334 641.888 412.346 641.782 412.346C641.657 412.346 641.541 412.331 641.435 412.3C641.331 412.269 641.241 412.222 641.164 412.158C641.085 412.097 641.022 412.019 640.976 411.924C640.932 411.828 640.905 411.715 640.895 411.586H640.202C640.204 411.789 640.244 411.968 640.323 412.124C640.404 412.28 640.513 412.416 640.65 412.531C640.798 412.654 640.972 412.749 641.172 412.814C641.373 412.878 641.576 412.91 641.782 412.91C641.977 412.91 642.162 412.885 642.337 412.837C642.512 412.787 642.666 412.713 642.799 412.615C642.93 412.521 643.034 412.402 643.111 412.26C643.19 412.117 643.23 411.952 643.23 411.765C643.23 411.563 643.184 411.385 643.094 411.231C643.005 411.075 642.887 410.941 642.738 410.829C642.619 410.741 642.488 410.666 642.345 410.604C642.205 410.541 642.06 410.488 641.912 410.445C641.795 410.411 641.682 410.373 641.574 410.333C641.468 410.292 641.374 410.245 641.291 410.191C641.21 410.137 641.146 410.074 641.097 410.003C641.049 409.93 641.024 409.845 641.022 409.749C641.022 409.658 641.041 409.577 641.077 409.503C641.114 409.43 641.165 409.368 641.23 409.316C641.296 409.265 641.373 409.227 641.461 409.2C641.552 409.171 641.65 409.157 641.756 409.157C641.877 409.157 641.984 409.175 642.077 409.212C642.171 409.246 642.251 409.294 642.317 409.356C642.38 409.42 642.429 409.496 642.464 409.584C642.5 409.671 642.524 409.767 642.533 409.873H643.221C643.221 409.682 643.182 409.509 643.105 409.353C643.03 409.195 642.927 409.059 642.796 408.946C642.665 408.834 642.511 408.747 642.334 408.686C642.159 408.622 641.969 408.59 641.765 408.59C641.572 408.59 641.388 408.617 641.213 408.671C641.04 408.723 640.887 408.799 640.756 408.9C640.625 409.002 640.521 409.125 640.444 409.269C640.367 409.412 640.329 409.573 640.329 409.752C640.329 409.917 640.362 410.067 640.427 410.2C640.495 410.331 640.587 410.448 640.704 410.552C640.822 410.654 640.964 410.747 641.129 410.829C641.297 410.91 641.48 410.979 641.678 411.035C641.807 411.071 641.924 411.113 642.028 411.159C642.134 411.203 642.225 411.253 642.302 411.309C642.375 411.369 642.432 411.436 642.473 411.511C642.513 411.586 642.533 411.673 642.533 411.771ZM646.367 410.968V410.408H644.628V409.223H646.644V408.648H643.932V412.855H646.659V412.283H644.628V410.968H646.367ZM650.287 411.56H649.591C649.58 411.687 649.555 411.8 649.516 411.898C649.478 411.997 649.427 412.078 649.363 412.144C649.297 412.211 649.219 412.262 649.126 412.297C649.034 412.332 648.928 412.349 648.808 412.349C648.708 412.349 648.619 412.336 648.54 412.309C648.463 412.28 648.394 412.238 648.334 412.184C648.277 412.134 648.227 412.075 648.184 412.005C648.144 411.936 648.11 411.859 648.083 411.774C648.048 411.672 648.022 411.559 648.005 411.436C647.99 411.313 647.982 411.181 647.982 411.04V410.46C647.982 410.346 647.988 410.235 647.999 410.127C648.013 410.018 648.032 409.915 648.057 409.818C648.09 409.708 648.131 409.609 648.181 409.521C648.233 409.43 648.298 409.357 648.375 409.301C648.431 409.255 648.494 409.219 648.566 409.194C648.639 409.169 648.721 409.157 648.811 409.157C648.94 409.157 649.051 409.176 649.143 409.214C649.236 409.251 649.314 409.305 649.377 409.376C649.439 409.448 649.487 409.534 649.522 409.636C649.558 409.736 649.583 409.849 649.594 409.974H650.287C650.266 409.764 650.219 409.574 650.146 409.402C650.075 409.231 649.976 409.084 649.851 408.963C649.728 408.844 649.579 408.751 649.403 408.686C649.23 408.62 649.033 408.588 648.811 408.588C648.647 408.588 648.496 408.61 648.358 408.654C648.221 408.698 648.096 408.76 647.982 408.839C647.863 408.926 647.757 409.031 647.664 409.154C647.574 409.275 647.5 409.411 647.442 409.561C647.388 409.696 647.347 409.839 647.32 409.992C647.293 410.144 647.28 410.302 647.28 410.465V411.04C647.28 411.212 647.293 411.376 647.32 411.534C647.349 411.692 647.392 411.839 647.448 411.974C647.503 412.11 647.572 412.236 647.653 412.352C647.735 412.466 647.832 412.563 647.942 412.644C648.055 412.73 648.184 412.798 648.329 412.846C648.475 412.892 648.635 412.915 648.808 412.915C649.02 412.915 649.213 412.884 649.386 412.82C649.561 412.755 649.713 412.662 649.84 412.543C649.965 412.425 650.066 412.284 650.143 412.118C650.22 411.95 650.268 411.765 650.287 411.56ZM657.085 411.063V410.491H655.306V409.223H657.34V408.648H654.607V412.855H655.306V411.063H657.085ZM660.74 411.286V410.725H658.414V411.286H660.74ZM662.407 411.251H663.121C663.333 411.251 663.527 411.22 663.704 411.159C663.883 411.097 664.037 411.01 664.167 410.896C664.296 410.784 664.396 410.65 664.467 410.494C664.538 410.336 664.574 410.16 664.574 409.966C664.574 409.763 664.538 409.581 664.467 409.42C664.396 409.258 664.296 409.12 664.167 409.006C664.037 408.893 663.883 408.805 663.704 408.744C663.527 408.682 663.333 408.65 663.121 408.648H661.714V412.855H662.407V411.251ZM662.407 410.685V409.214H663.121C663.238 409.216 663.343 409.236 663.436 409.272C663.53 409.309 663.61 409.361 663.675 409.428C663.741 409.496 663.79 409.576 663.823 409.668C663.857 409.759 663.875 409.86 663.875 409.971C663.875 410.073 663.857 410.168 663.823 410.255C663.79 410.341 663.741 410.416 663.675 410.48C663.61 410.543 663.53 410.594 663.436 410.63C663.343 410.665 663.238 410.683 663.121 410.685H662.407ZM665.972 412.283V408.648H665.276V412.855H667.98V412.283H665.972ZM671.485 412.855V408.648H670.785L670.78 411.531L669.422 408.648H668.717V412.855H669.419L669.422 409.96L670.788 412.855H671.485Z" fill="#24FF00"/>
<path d="M640.682 417.326V418.156H641.951V422.576H640.682V423.402H644.263V422.576H642.965V418.156H644.263V417.326H640.682ZM645.619 423.402H647.154C647.433 423.402 647.693 423.368 647.935 423.302C648.18 423.235 648.402 423.139 648.603 423.014C648.781 422.9 648.942 422.762 649.087 422.601C649.234 422.439 649.359 422.26 649.462 422.062C649.568 421.859 649.649 421.635 649.704 421.39C649.763 421.143 649.792 420.881 649.792 420.606V420.13C649.792 419.844 649.761 419.574 649.7 419.321C649.639 419.067 649.553 418.835 649.441 418.624C649.333 418.421 649.198 418.237 649.037 418.073C648.878 417.909 648.696 417.772 648.49 417.664C648.301 417.558 648.091 417.476 647.86 417.418C647.629 417.356 647.383 417.326 647.121 417.326H645.619V423.402ZM646.633 418.144H647.121C647.282 418.147 647.433 418.166 647.572 418.202C647.711 418.236 647.836 418.284 647.947 418.348C648.1 418.434 648.233 418.547 648.344 418.686C648.455 418.823 648.544 418.976 648.611 419.145C648.664 419.284 648.704 419.436 648.732 419.6C648.76 419.764 648.774 419.938 648.774 420.122V420.606C648.774 420.792 648.76 420.968 648.732 421.132C648.704 421.296 648.664 421.447 648.611 421.587C648.55 421.751 648.47 421.897 648.373 422.025C648.278 422.15 648.17 422.254 648.047 422.338C647.928 422.418 647.793 422.481 647.643 422.526C647.495 422.567 647.333 422.588 647.154 422.588H646.633V418.144ZM659.586 420.815V419.988H657.015V418.156H659.953V417.326H656.006V423.402H657.015V420.815H659.586ZM664.865 421.136V420.326H661.506V421.136H664.865ZM670.09 423.402V422.596H667.26L668.612 421.153C668.791 420.963 668.955 420.78 669.105 420.602C669.258 420.424 669.39 420.247 669.501 420.072C669.61 419.896 669.695 419.72 669.756 419.542C669.82 419.361 669.852 419.175 669.852 418.983C669.852 418.727 669.81 418.493 669.727 418.281C669.643 418.067 669.522 417.884 669.364 417.731C669.202 417.578 669.003 417.458 668.767 417.372C668.533 417.285 668.267 417.242 667.97 417.242C667.653 417.242 667.365 417.294 667.106 417.397C666.85 417.5 666.633 417.639 666.455 417.814C666.274 417.989 666.135 418.195 666.038 418.432C665.94 418.665 665.892 418.914 665.892 419.179H666.893C666.893 419.003 666.915 418.848 666.96 418.711C667.004 418.572 667.071 418.454 667.16 418.357C667.246 418.265 667.355 418.194 667.486 418.144C667.616 418.094 667.771 418.069 667.949 418.069C668.088 418.069 668.213 418.092 668.325 418.14C668.439 418.187 668.536 418.252 668.617 418.336C668.697 418.419 668.759 418.519 668.8 418.636C668.842 418.753 668.863 418.882 668.863 419.024C668.863 419.13 668.848 419.236 668.817 419.341C668.789 419.444 668.742 419.556 668.675 419.675C668.606 419.795 668.515 419.927 668.404 420.072C668.293 420.214 668.155 420.375 667.991 420.556L666.013 422.709V423.402H670.09ZM675.223 423.402V422.596H672.393L673.745 421.153C673.923 420.963 674.088 420.78 674.238 420.602C674.391 420.424 674.523 420.247 674.634 420.072C674.743 419.896 674.828 419.72 674.889 419.542C674.953 419.361 674.985 419.175 674.985 418.983C674.985 418.727 674.943 418.493 674.86 418.281C674.776 418.067 674.655 417.884 674.497 417.731C674.335 417.578 674.136 417.458 673.9 417.372C673.666 417.285 673.4 417.242 673.103 417.242C672.786 417.242 672.498 417.294 672.239 417.397C671.983 417.5 671.766 417.639 671.588 417.814C671.407 417.989 671.268 418.195 671.171 418.432C671.073 418.665 671.025 418.914 671.025 419.179H672.026C672.026 419.003 672.048 418.848 672.093 418.711C672.137 418.572 672.204 418.454 672.293 418.357C672.379 418.265 672.488 418.194 672.619 418.144C672.749 418.094 672.904 418.069 673.082 418.069C673.221 418.069 673.346 418.092 673.457 418.14C673.571 418.187 673.669 418.252 673.75 418.336C673.83 418.419 673.891 418.519 673.933 418.636C673.975 418.753 673.996 418.882 673.996 419.024C673.996 419.13 673.98 419.236 673.95 419.341C673.922 419.444 673.875 419.556 673.808 419.675C673.738 419.795 673.648 419.927 673.537 420.072C673.425 420.214 673.288 420.375 673.124 420.556L671.146 422.709V423.402H675.223ZM677.731 422.801C677.731 422.993 677.793 423.156 677.918 423.289C678.046 423.42 678.224 423.485 678.453 423.485C678.678 423.485 678.855 423.42 678.983 423.289C679.113 423.158 679.179 422.996 679.179 422.801C679.179 422.606 679.115 422.442 678.987 422.309C678.859 422.172 678.681 422.104 678.453 422.104C678.219 422.104 678.039 422.172 677.914 422.309C677.792 422.445 677.731 422.609 677.731 422.801ZM682.676 419.913V420.698H683.273C683.445 420.698 683.601 420.719 683.74 420.76C683.882 420.799 684.003 420.859 684.103 420.94C684.203 421.023 684.28 421.128 684.332 421.253C684.385 421.378 684.412 421.528 684.412 421.703C684.412 421.859 684.388 421.998 684.341 422.121C684.296 422.24 684.231 422.34 684.145 422.421C684.056 422.507 683.946 422.573 683.815 422.617C683.687 422.659 683.542 422.68 683.381 422.68C683.231 422.68 683.093 422.658 682.968 422.613C682.845 422.569 682.74 422.506 682.651 422.425C682.559 422.347 682.488 422.253 682.438 422.142C682.391 422.028 682.367 421.904 682.367 421.77H681.37C681.37 422.054 681.424 422.303 681.532 422.517C681.644 422.729 681.791 422.907 681.975 423.051C682.158 423.196 682.371 423.304 682.613 423.377C682.855 423.449 683.107 423.485 683.369 423.485C683.658 423.485 683.926 423.446 684.174 423.368C684.424 423.288 684.641 423.171 684.825 423.018C685.006 422.868 685.148 422.683 685.251 422.463C685.356 422.24 685.409 421.987 685.409 421.703C685.409 421.55 685.391 421.403 685.355 421.261C685.319 421.116 685.26 420.981 685.18 420.856C685.099 420.734 684.995 420.624 684.867 420.527C684.741 420.426 684.588 420.346 684.408 420.285C684.561 420.215 684.694 420.13 684.808 420.03C684.922 419.93 685.017 419.823 685.092 419.709C685.167 419.592 685.223 419.471 685.259 419.346C685.298 419.22 685.317 419.095 685.317 418.97C685.317 418.686 685.27 418.437 685.175 418.223C685.081 418.009 684.947 417.828 684.775 417.681C684.605 417.536 684.399 417.427 684.157 417.355C683.918 417.28 683.655 417.242 683.369 417.242C683.088 417.242 682.829 417.284 682.592 417.368C682.359 417.451 682.156 417.566 681.983 417.714C681.811 417.864 681.676 418.041 681.578 418.244C681.481 418.447 681.432 418.67 681.432 418.912H682.43C682.43 418.781 682.453 418.663 682.501 418.557C682.551 418.451 682.619 418.361 682.705 418.286C682.788 418.211 682.887 418.154 683.001 418.115C683.118 418.073 683.245 418.052 683.381 418.052C683.534 418.052 683.669 418.073 683.786 418.115C683.905 418.156 684.004 418.215 684.082 418.29C684.16 418.371 684.218 418.468 684.257 418.582C684.299 418.696 684.32 418.825 684.32 418.97C684.32 419.104 684.298 419.229 684.253 419.346C684.211 419.46 684.15 419.556 684.07 419.634C683.983 419.723 683.873 419.792 683.74 419.842C683.606 419.89 683.451 419.913 683.273 419.913H682.676Z" fill="#24FF00"/>
<rect x="639.691" y="397.528" width="5.25938" height="1.31484" fill="#24FF00"/>
</g>
<defs>
<filter id="filter0_f_7_251" x="0.217233" y="0.423707" width="1216.27" height="583.395" filterUnits="userSpaceOnUse" color-interpolation-filters="sRGB">
<feFlood flood-opacity="0" result="BackgroundImageFix"/>
<feBlend mode="normal" in="SourceGraphic" in2="BackgroundImageFix" result="shape"/>
<feGaussianBlur stdDeviation="1.32546" result="effect1_foregroundBlur_7_251"/>
</filter>
</defs>
</svg>
