<svg width="147" height="49" viewBox="0 0 147 49" fill="none" xmlns="http://www.w3.org/2000/svg">
<rect x="98" width="49" height="49" fill="white"/>
<g clip-path="url(#clip0_16_125)">
<path d="M137.243 30.0578C136.528 29.1997 135.716 28.4307 134.93 27.687C134.651 27.4225 134.362 27.1491 134.083 26.8772C133.284 26.0957 133.255 25.8021 133.888 24.9144C134.326 24.3025 134.79 23.6899 135.239 23.0973C135.646 22.5597 136.067 22.0038 136.471 21.4461L136.554 21.3314C137.325 20.2641 138.123 19.1605 138.547 17.8291C138.658 17.4778 138.773 16.9609 138.509 16.5287C138.244 16.0969 137.731 15.9651 137.368 15.9036C137.188 15.8731 137.01 15.869 136.845 15.869L131.793 15.8654L131.751 15.865C130.988 15.865 130.473 16.2249 130.178 16.9655C129.896 17.673 129.587 18.4265 129.234 19.1429C128.532 20.5695 127.64 22.2127 126.349 23.5831L126.294 23.6413C126.142 23.8052 125.969 23.9907 125.843 23.9907C125.823 23.9907 125.802 23.987 125.778 23.9795C125.511 23.8753 125.332 23.228 125.34 22.9269C125.34 22.9227 125.34 22.9186 125.34 22.9144L125.336 17.0759C125.336 17.0557 125.335 17.0356 125.332 17.0155C125.204 16.0664 124.919 15.4756 123.844 15.265C123.815 15.2593 123.786 15.2565 123.757 15.2565H118.504C117.648 15.2565 117.177 15.6043 116.734 16.1249C116.614 16.264 116.365 16.5538 116.488 16.9052C116.614 17.2619 117.02 17.3381 117.153 17.3629C117.81 17.488 118.18 17.8899 118.285 18.5922C118.468 19.8118 118.491 21.1135 118.356 22.6889C118.318 23.1267 118.244 23.4649 118.121 23.7538C118.093 23.8212 117.992 24.0412 117.889 24.0413C117.856 24.0413 117.762 24.0285 117.589 23.9097C117.182 23.6306 116.884 23.2322 116.536 22.7402C115.354 21.0693 114.362 19.2285 113.502 17.1115C113.184 16.3322 112.588 15.8959 111.825 15.8831C110.987 15.8703 110.227 15.8642 109.502 15.8642C108.71 15.8642 107.976 15.8715 107.259 15.8864C106.645 15.8973 106.221 16.0812 105.998 16.4337C105.774 16.7864 105.788 17.2497 106.041 17.8105C108.062 22.3037 109.895 25.5707 111.983 28.4039C113.446 30.3863 114.914 31.7585 116.601 32.7219C118.379 33.739 120.372 34.2335 122.692 34.2335C122.955 34.2335 123.227 34.2271 123.502 34.2142C124.85 34.1485 125.35 33.6605 125.413 32.3475C125.444 31.6766 125.517 30.9729 125.847 30.3728C126.055 29.9947 126.249 29.9947 126.313 29.9947C126.436 29.9947 126.588 30.0513 126.752 30.1573C127.045 30.3488 127.297 30.6055 127.503 30.8297C127.697 31.0427 127.89 31.2578 128.082 31.4731C128.496 31.9376 128.925 32.4179 129.373 32.8735C130.354 33.8712 131.434 34.31 132.675 34.2148H137.307C137.316 34.2148 137.326 34.2144 137.336 34.2138C137.798 34.1833 138.197 33.9273 138.433 33.5115C138.724 32.9963 138.719 32.339 138.417 31.7529C138.075 31.0902 137.631 30.524 137.243 30.0578Z" fill="black"/>
</g>
<rect width="49" height="49" fill="white"/>
<path d="M36.8012 13.9894C34.6004 12.9597 32.2471 12.2113 29.7868 11.7852C29.4846 12.3314 29.1316 13.0662 28.8882 13.6507C26.2729 13.2574 23.6816 13.2574 21.1143 13.6507C20.871 13.0662 20.51 12.3314 20.2051 11.7852C17.7421 12.2113 15.3862 12.9624 13.1853 13.9948C8.74608 20.7031 7.54268 27.2446 8.14438 33.6933C11.0887 35.8921 13.9421 37.2277 16.7473 38.1018C17.4399 37.1485 18.0577 36.1352 18.5898 35.0672C17.5763 34.6821 16.6056 34.2069 15.6884 33.6551C15.9317 33.4748 16.1697 33.2864 16.3997 33.0924C21.9941 35.7091 28.0726 35.7091 33.6002 33.0924C33.8329 33.2864 34.0708 33.4748 34.3115 33.6551C33.3916 34.2096 32.4182 34.6848 31.4047 35.07C31.9368 36.1352 32.5519 37.1513 33.2472 38.1045C36.0551 37.2304 38.9112 35.8948 41.8555 33.6933C42.5615 26.2176 40.6494 19.7361 36.8012 13.9894ZM19.352 29.7274C17.6726 29.7274 16.2954 28.1596 16.2954 26.2504C16.2954 24.3412 17.6432 22.7707 19.352 22.7707C21.0608 22.7707 22.438 24.3385 22.4086 26.2504C22.4113 28.1596 21.0608 29.7274 19.352 29.7274ZM30.6479 29.7274C28.9685 29.7274 27.5912 28.1596 27.5912 26.2504C27.5912 24.3412 28.939 22.7707 30.6479 22.7707C32.3567 22.7707 33.7339 24.3385 33.7045 26.2504C33.7045 28.1596 32.3567 29.7274 30.6479 29.7274Z" fill="black"/>
<defs>
<clipPath id="clip0_16_125">
<rect width="32.83" height="32.83" fill="white" transform="translate(105.84 8.33002)"/>
</clipPath>
</defs>
</svg>
