<svg width="49" height="49" viewBox="0 0 49 49" fill="none" xmlns="http://www.w3.org/2000/svg">
<rect width="49" height="49" fill="white"/>
<g clip-path="url(#clip0_7_459)">
<path d="M39.2426 30.0578C38.5279 29.1997 37.7156 28.4307 36.93 27.687C36.6507 27.4225 36.3619 27.1491 36.0835 26.8772C35.2842 26.0957 35.2551 25.8021 35.8879 24.9144C36.3257 24.3025 36.7899 23.6899 37.2389 23.0973C37.6461 22.5597 38.0672 22.0038 38.4707 21.4461L38.5536 21.3314C39.325 20.2641 40.1227 19.1605 40.5473 17.8291C40.6575 17.4778 40.7733 16.9609 40.5086 16.5287C40.2441 16.0969 39.731 15.9651 39.368 15.9036C39.1884 15.8731 39.0101 15.869 38.8447 15.869L33.7931 15.8654L33.7514 15.865C32.9876 15.865 32.4729 16.2249 32.1779 16.9655C31.8964 17.673 31.587 18.4265 31.2341 19.1429C30.5316 20.5695 29.6396 22.2127 28.3487 23.5831L28.2941 23.6413C28.1417 23.8052 27.969 23.9907 27.8427 23.9907C27.8234 23.9907 27.8023 23.987 27.7785 23.9795C27.5111 23.8753 27.3316 23.228 27.3397 22.9269C27.3398 22.9227 27.3399 22.9186 27.3399 22.9144L27.3364 17.0759C27.3364 17.0557 27.335 17.0356 27.3323 17.0155C27.2038 16.0664 26.9192 15.4756 25.8436 15.265C25.8151 15.2593 25.7859 15.2565 25.7568 15.2565H20.5042C19.6484 15.2565 19.1769 15.6043 18.7337 16.1249C18.614 16.264 18.365 16.5538 18.4884 16.9052C18.6137 17.2619 19.0202 17.3381 19.1526 17.3629C19.8097 17.488 20.1801 17.8899 20.2851 18.5922C20.4682 19.8118 20.4907 21.1135 20.3559 22.6889C20.3183 23.1267 20.2439 23.4649 20.1214 23.7538C20.0929 23.8212 19.992 24.0412 19.8891 24.0413C19.8564 24.0413 19.7618 24.0285 19.5894 23.9097C19.182 23.6306 18.8839 23.2322 18.5363 22.7402C17.354 21.0693 16.3616 19.2285 15.5023 17.1115C15.1835 16.3322 14.5883 15.8959 13.8254 15.8831C12.9872 15.8703 12.2272 15.8642 11.5024 15.8642C10.7104 15.8642 9.97622 15.8715 9.25926 15.8864C8.64549 15.8973 8.22095 16.0812 7.99757 16.4337C7.77382 16.7864 7.78837 17.2497 8.04085 17.8105C10.062 22.3037 11.8945 25.5707 13.9829 28.4039C15.4462 30.3863 16.9139 31.7585 18.6014 32.7219C20.3792 33.739 22.3716 34.2335 24.6922 34.2335C24.9553 34.2335 25.2273 34.2271 25.5015 34.2142C26.85 34.1485 27.3502 33.6605 27.4135 32.3475C27.4436 31.6766 27.517 30.9729 27.8468 30.3728C28.055 29.9947 28.2491 29.9947 28.3129 29.9947C28.4358 29.9947 28.5881 30.0513 28.7518 30.1573C29.0453 30.3488 29.297 30.6055 29.5033 30.8297C29.6975 31.0427 29.8895 31.2578 30.0817 31.4731C30.4965 31.9376 30.9254 32.4179 31.3734 32.8735C32.3541 33.8712 33.4344 34.31 34.6752 34.2148H39.3066C39.3165 34.2148 39.3264 34.2144 39.3363 34.2138C39.7978 34.1833 40.1974 33.9273 40.4329 33.5115C40.7245 32.9963 40.7186 32.339 40.4171 31.7529C40.0751 31.0902 39.6314 30.524 39.2426 30.0578Z" fill="black"/>
</g>
<defs>
<clipPath id="clip0_7_459">
<rect width="32.83" height="32.83" fill="white" transform="translate(7.83997 8.33002)"/>
</clipPath>
</defs>
</svg>
